<svg xmlns="http://www.w3.org/2000/svg" xmlns:xlink="http://www.w3.org/1999/xlink" zoomAndPan="magnify" viewBox="0 0 375 374.999991" preserveAspectRatio="xMidYMid meet" version="1.2"><defs><clipPath id="c39d736914"><path d="M 113.046875 98.769531 L 226.777344 98.769531 L 226.777344 134.769531 L 113.046875 134.769531 Z M 113.046875 98.769531 "/></clipPath><clipPath id="555fdf064d"><path d="M 226.808594 98.769531 L 279.996094 98.769531 L 279.996094 158.769531 L 226.808594 158.769531 Z M 226.808594 98.769531 "/></clipPath></defs><g id="e7fbb6d29c"><g style="fill:#ffffff;fill-opacity:1;"><g transform="translate(109.135111, 211.862146)"><path style="stroke:none" d="M 0.742188 -77.542969 L 23.550781 -77.542969 C 28.628906 -77.542969 33.164062 -76.410156 37.152344 -74.148438 C 41.035156 -71.945312 44.371094 -68.992188 47.167969 -65.292969 C 49.871094 -61.714844 52.082031 -57.757812 53.800781 -53.425781 C 55.488281 -49.164062 56.738281 -44.808594 57.542969 -40.363281 C 58.34375 -35.9375 58.746094 -31.746094 58.746094 -27.785156 C 58.746094 -21.980469 58.183594 -17.125 57.058594 -13.21875 C 55.867188 -9.078125 54.078125 -5.785156 51.691406 -3.339844 C 49.292969 -0.878906 46.398438 0.851562 43.007812 1.855469 C 39.859375 2.785156 36.296875 3.25 32.316406 3.25 L -7.105469 3.25 L -1.554688 -2.296875 C -0.972656 -2.882812 -0.570312 -3.578125 -0.351562 -4.382812 C -0.0546875 -5.464844 0.09375 -6.925781 0.09375 -8.765625 L 0.09375 -65.527344 C 0.09375 -67.363281 -0.0546875 -68.824219 -0.351562 -69.90625 C -0.570312 -70.714844 -0.972656 -71.410156 -1.554688 -71.992188 L -7.105469 -77.542969 Z M 0.742188 -71.042969 L 0.742188 -74.292969 L 3.042969 -76.589844 C 4.4375 -75.191406 5.398438 -73.535156 5.921875 -71.617188 C 6.371094 -69.976562 6.59375 -67.945312 6.59375 -65.527344 L 6.59375 -8.765625 C 6.59375 -6.347656 6.371094 -4.316406 5.921875 -2.671875 C 5.398438 -0.757812 4.4375 0.902344 3.042969 2.296875 L 0.742188 0 L 0.742188 -3.25 L 32.316406 -3.25 C 35.667969 -3.25 38.617188 -3.625 41.164062 -4.378906 C 43.472656 -5.0625 45.429688 -6.226562 47.039062 -7.878906 C 48.664062 -9.542969 49.921875 -11.921875 50.8125 -15.015625 C 51.769531 -18.335938 52.246094 -22.59375 52.246094 -27.785156 C 52.246094 -31.355469 51.878906 -35.160156 51.144531 -39.203125 C 50.417969 -43.226562 49.289062 -47.167969 47.757812 -51.03125 C 46.253906 -54.816406 44.332031 -58.265625 41.980469 -61.375 C 39.726562 -64.359375 37.046875 -66.734375 33.945312 -68.492188 C 30.949219 -70.191406 27.484375 -71.042969 23.550781 -71.042969 Z M 28.601562 -66.808594 C 28.28125 -66.808594 28.039062 -66.734375 27.871094 -66.585938 C 27.550781 -66.304688 27.269531 -65.769531 27.03125 -64.980469 C 26.28125 -62.542969 25.910156 -58.21875 25.910156 -52.003906 L 25.910156 -22.289062 C 25.910156 -16.039062 26.265625 -11.609375 26.984375 -8.992188 C 27.339844 -7.691406 27.730469 -7.039062 28.15625 -7.039062 C 28.457031 -7.039062 28.785156 -7.289062 29.148438 -7.792969 C 29.894531 -8.832031 30.523438 -10.535156 31.035156 -12.90625 C 32.199219 -18.300781 32.78125 -26.332031 32.78125 -36.996094 C 32.78125 -39.84375 32.746094 -42.789062 32.671875 -45.832031 C 32.597656 -48.828125 32.429688 -51.722656 32.164062 -54.519531 C 31.90625 -57.242188 31.523438 -59.667969 31.011719 -61.796875 C 30.554688 -63.710938 29.984375 -65.1875 29.300781 -66.234375 C 29.128906 -66.5 28.96875 -66.671875 28.828125 -66.757812 C 28.773438 -66.789062 28.699219 -66.808594 28.601562 -66.808594 Z M 28.601562 -73.308594 C 29.894531 -73.308594 31.082031 -72.984375 32.164062 -72.335938 C 33.164062 -71.738281 34.019531 -70.894531 34.738281 -69.792969 C 35.835938 -68.117188 36.703125 -65.957031 37.335938 -63.308594 C 37.914062 -60.882812 38.347656 -58.160156 38.636719 -55.132812 C 38.914062 -52.1875 39.09375 -49.136719 39.167969 -45.992188 C 39.246094 -42.894531 39.28125 -39.894531 39.28125 -36.996094 C 39.28125 -25.871094 38.652344 -17.382812 37.386719 -11.535156 C 35.804688 -4.203125 32.730469 -0.539062 28.15625 -0.539062 C 26.214844 -0.539062 24.566406 -1.222656 23.210938 -2.585938 C 22.09375 -3.714844 21.257812 -5.28125 20.710938 -7.277344 C 19.84375 -10.457031 19.410156 -15.457031 19.410156 -22.289062 L 19.410156 -52.003906 C 19.410156 -58.867188 19.878906 -63.828125 20.8125 -66.886719 C 21.414062 -68.847656 22.335938 -70.375 23.574219 -71.464844 C 24.96875 -72.695312 26.644531 -73.308594 28.601562 -73.308594 Z M 28.601562 -73.308594 "/></g></g><g style="fill:#000000;fill-opacity:1;"><g transform="translate(109.135111, 211.862146)"><path style="stroke:none" d="M 0.75 -74.296875 L 23.546875 -74.296875 C 28.054688 -74.296875 32.054688 -73.304688 35.546875 -71.328125 C 39.035156 -69.347656 42.046875 -66.6875 44.578125 -63.34375 C 47.109375 -60 49.175781 -56.296875 50.78125 -52.234375 C 52.394531 -48.171875 53.582031 -44.019531 54.34375 -39.78125 C 55.113281 -35.550781 55.5 -31.550781 55.5 -27.78125 C 55.5 -22.289062 54.976562 -17.734375 53.9375 -14.109375 C 52.894531 -10.492188 51.367188 -7.660156 49.359375 -5.609375 C 47.359375 -3.554688 44.929688 -2.109375 42.078125 -1.265625 C 39.234375 -0.421875 35.976562 0 32.3125 0 L 0.75 0 C 1.738281 -0.988281 2.414062 -2.164062 2.78125 -3.53125 C 3.15625 -4.894531 3.34375 -6.640625 3.34375 -8.765625 L 3.34375 -65.53125 C 3.34375 -67.65625 3.15625 -69.398438 2.78125 -70.765625 C 2.414062 -72.128906 1.738281 -73.304688 0.75 -74.296875 Z M 28.609375 -70.0625 C 26.328125 -70.0625 24.765625 -68.6875 23.921875 -65.9375 C 23.078125 -63.1875 22.65625 -58.546875 22.65625 -52.015625 C 22.65625 -51.765625 22.65625 -51.144531 22.65625 -50.15625 C 22.65625 -49.164062 22.65625 -47.988281 22.65625 -46.625 C 22.65625 -45.257812 22.65625 -43.894531 22.65625 -42.53125 C 22.65625 -41.164062 22.65625 -39.988281 22.65625 -39 C 22.65625 -38.007812 22.65625 -37.394531 22.65625 -37.15625 C 22.65625 -36.90625 22.65625 -36.285156 22.65625 -35.296875 C 22.65625 -34.304688 22.65625 -33.128906 22.65625 -31.765625 C 22.65625 -30.398438 22.65625 -29.035156 22.65625 -27.671875 C 22.65625 -26.304688 22.65625 -25.128906 22.65625 -24.140625 C 22.65625 -23.148438 22.65625 -22.535156 22.65625 -22.296875 C 22.65625 -15.753906 23.050781 -11.035156 23.84375 -8.140625 C 24.632812 -5.242188 26.070312 -3.796875 28.15625 -3.796875 C 30.976562 -3.796875 32.992188 -6.601562 34.203125 -12.21875 C 35.421875 -17.84375 36.03125 -26.101562 36.03125 -37 C 36.03125 -39.875 35.992188 -42.84375 35.921875 -45.90625 C 35.847656 -48.976562 35.675781 -51.953125 35.40625 -54.828125 C 35.132812 -57.703125 34.722656 -60.273438 34.171875 -62.546875 C 33.628906 -64.828125 32.910156 -66.648438 32.015625 -68.015625 C 31.128906 -69.378906 29.992188 -70.0625 28.609375 -70.0625 Z M 28.609375 -70.0625 "/></g></g><g style="fill:#ffffff;fill-opacity:1;"><g transform="translate(154.486312, 211.862146)"><path style="stroke:none" d="M -3.25 -44.054688 C -3.25 -44.765625 -3.105469 -45.410156 -2.8125 -45.992188 C -2.382812 -46.851562 -1.722656 -47.460938 -0.835938 -47.816406 C -0.804688 -47.828125 -0.78125 -47.835938 -0.765625 -47.84375 C -0.765625 -47.84375 -0.773438 -47.839844 -0.785156 -47.835938 C -1.023438 -47.714844 -1.257812 -47.542969 -1.480469 -47.320312 L -1.101562 -47.699219 L 2.164062 -49.308594 C 3.441406 -49.9375 4.894531 -50.636719 6.511719 -51.410156 C 8.175781 -52.203125 9.875 -52.957031 11.613281 -53.671875 C 13.375 -54.398438 15.007812 -55.007812 16.519531 -55.5 C 18.285156 -56.078125 19.789062 -56.367188 21.023438 -56.367188 C 22.046875 -56.367188 22.933594 -56.195312 23.6875 -55.847656 C 24.859375 -55.304688 25.644531 -54.441406 26.039062 -53.253906 C 26.347656 -52.328125 26.503906 -51.316406 26.503906 -50.222656 L 26.503906 -8.765625 C 26.503906 -6.925781 26.652344 -5.464844 26.945312 -4.382812 C 27.167969 -3.578125 27.566406 -2.882812 28.152344 -2.296875 L 33.699219 3.25 L -6.882812 3.25 L -1.332031 -2.296875 C -0.75 -2.882812 -0.347656 -3.578125 -0.125 -4.382812 C 0.167969 -5.464844 0.316406 -6.925781 0.316406 -8.765625 L 0.316406 -37.292969 C 0.316406 -37.558594 0.304688 -38.070312 0.28125 -38.828125 C 0.265625 -39.242188 0.167969 -39.683594 -0.015625 -40.152344 C 0.015625 -40.074219 0.0664062 -40.003906 0.144531 -39.9375 C 0.167969 -39.914062 0.191406 -39.898438 0.210938 -39.886719 C 0.195312 -39.894531 0.171875 -39.902344 0.136719 -39.914062 L -0.109375 -39.992188 L -0.339844 -40.109375 C -0.285156 -40.078125 -0.234375 -40.058594 -0.1875 -40.039062 L -0.199219 -40.042969 C -0.261719 -40.066406 -0.355469 -40.09375 -0.472656 -40.132812 C -1.433594 -40.425781 -2.171875 -41.003906 -2.675781 -41.863281 C -3.058594 -42.507812 -3.25 -43.238281 -3.25 -44.054688 Z M 3.25 -44.054688 C 3.25 -44.425781 3.140625 -44.796875 2.917969 -45.171875 C 2.574219 -45.757812 2.078125 -46.148438 1.4375 -46.34375 C 1.933594 -46.191406 2.308594 -46.050781 2.566406 -45.921875 L 1.113281 -43.015625 L 2.09375 -46.113281 C 4.019531 -45.507812 5.332031 -44.3125 6.03125 -42.535156 C 6.492188 -41.367188 6.742188 -40.199219 6.777344 -39.03125 C 6.804688 -38.203125 6.816406 -37.625 6.816406 -37.292969 L 6.816406 -8.765625 C 6.816406 -6.347656 6.59375 -4.316406 6.144531 -2.671875 C 5.621094 -0.757812 4.660156 0.902344 3.265625 2.296875 L 0.964844 0 L 0.964844 -3.25 L 25.855469 -3.25 L 25.855469 0 L 23.554688 2.296875 C 22.15625 0.902344 21.199219 -0.757812 20.675781 -2.671875 C 20.226562 -4.316406 20.003906 -6.347656 20.003906 -8.765625 L 20.003906 -50.222656 C 20.003906 -50.613281 19.960938 -50.9375 19.871094 -51.199219 C 20.070312 -50.605469 20.433594 -50.1875 20.960938 -49.945312 C 21.0625 -49.898438 21.144531 -49.871094 21.210938 -49.859375 C 21.175781 -49.867188 21.113281 -49.867188 21.023438 -49.867188 C 20.480469 -49.867188 19.652344 -49.6875 18.542969 -49.324219 C 17.183594 -48.878906 15.699219 -48.324219 14.089844 -47.660156 C 12.460938 -46.992188 10.867188 -46.285156 9.3125 -45.542969 C 7.710938 -44.777344 6.289062 -44.09375 5.042969 -43.480469 L 2.253906 -42.105469 L 0.816406 -45.019531 L 3.117188 -42.722656 C 2.75 -42.359375 2.238281 -42.042969 1.578125 -41.78125 C 2.21875 -42.035156 2.695312 -42.472656 3 -43.085938 C 3.167969 -43.417969 3.25 -43.742188 3.25 -44.054688 Z M 13.222656 -81.925781 C 17.390625 -81.925781 20.78125 -80.617188 23.398438 -78 C 26.011719 -75.386719 27.320312 -71.996094 27.320312 -67.828125 C 27.320312 -63.664062 26.011719 -60.269531 23.398438 -57.65625 C 20.78125 -55.039062 17.390625 -53.730469 13.222656 -53.730469 C 9.058594 -53.730469 5.667969 -55.039062 3.050781 -57.65625 C 0.433594 -60.269531 -0.871094 -63.664062 -0.871094 -67.828125 C -0.871094 -71.996094 0.433594 -75.386719 3.050781 -78 C 5.667969 -80.617188 9.058594 -81.925781 13.222656 -81.925781 Z M 13.222656 -75.425781 C 10.851562 -75.425781 8.992188 -74.75 7.648438 -73.40625 C 6.300781 -72.058594 5.628906 -70.199219 5.628906 -67.828125 C 5.628906 -65.457031 6.300781 -63.597656 7.648438 -62.253906 C 8.992188 -60.90625 10.851562 -60.230469 13.222656 -60.230469 C 15.59375 -60.230469 17.453125 -60.90625 18.800781 -62.253906 C 20.148438 -63.597656 20.820312 -65.457031 20.820312 -67.828125 C 20.820312 -70.199219 20.148438 -72.058594 18.800781 -73.40625 C 17.453125 -74.75 15.59375 -75.425781 13.222656 -75.425781 Z M 13.222656 -75.425781 "/></g></g><g style="fill:#ffffff;fill-opacity:1;"><g transform="translate(179.001586, 211.862146)"><path style="stroke:none" d="M 3.199219 -36.226562 C 2.3125 -39.226562 1.4375 -42.09375 0.578125 -44.824219 C -0.105469 -46.992188 -1.011719 -48.570312 -2.140625 -49.558594 L -8.652344 -55.253906 L 30.929688 -55.253906 L 28.988281 -50.722656 C 28.351562 -49.238281 28.203125 -47.566406 28.535156 -45.703125 C 28.964844 -43.289062 29.539062 -40.710938 30.261719 -37.972656 C 30.953125 -35.394531 31.675781 -32.636719 32.421875 -29.699219 C 33.15625 -26.804688 33.917969 -23.957031 34.703125 -21.160156 C 35.476562 -18.402344 36.261719 -15.894531 37.054688 -13.632812 C 37.8125 -11.476562 38.53125 -9.785156 39.210938 -8.558594 C 39.421875 -8.171875 39.589844 -7.925781 39.707031 -7.816406 C 39.644531 -7.871094 39.558594 -7.929688 39.4375 -7.984375 C 39.191406 -8.097656 38.921875 -8.152344 38.632812 -8.152344 C 38.367188 -8.152344 38.121094 -8.101562 37.898438 -7.996094 C 37.792969 -7.945312 37.71875 -7.898438 37.675781 -7.855469 C 37.835938 -8.011719 38.035156 -8.335938 38.277344 -8.828125 C 38.972656 -10.234375 39.550781 -12.097656 40.011719 -14.417969 C 40.492188 -16.808594 40.730469 -19.28125 40.730469 -21.84375 C 40.730469 -25.242188 40.347656 -27.898438 39.585938 -29.816406 C 38.84375 -31.683594 37.972656 -33.097656 36.972656 -34.0625 C 35.855469 -35.136719 34.773438 -35.949219 33.734375 -36.5 C 32.410156 -37.199219 31.289062 -37.796875 30.363281 -38.296875 C 29.480469 -38.777344 28.78125 -39.363281 28.265625 -40.058594 C 27.609375 -40.945312 27.285156 -41.929688 27.285156 -43.015625 C 27.285156 -45.019531 28.070312 -46.921875 29.648438 -48.722656 C 30.929688 -50.183594 32.59375 -51.5 34.640625 -52.671875 C 36.59375 -53.789062 38.691406 -54.679688 40.941406 -55.34375 C 43.246094 -56.027344 45.523438 -56.367188 47.769531 -56.367188 C 50.5 -56.367188 52.746094 -55.679688 54.496094 -54.296875 C 56.132812 -53.011719 57.332031 -51.367188 58.089844 -49.367188 C 58.773438 -47.5625 59.117188 -45.640625 59.117188 -43.609375 C 59.117188 -41.558594 58.726562 -38.976562 57.941406 -35.867188 C 57.207031 -32.949219 56.257812 -29.699219 55.097656 -26.113281 C 53.945312 -22.566406 52.671875 -18.84375 51.273438 -14.949219 C 49.890625 -11.097656 48.535156 -7.246094 47.199219 -3.394531 C 46.546875 -1.359375 45.6875 0.144531 44.625 1.125 C 43.515625 2.148438 42.304688 2.777344 40.984375 3.015625 C 40.105469 3.171875 39.21875 3.25 38.335938 3.25 L 22.066406 3.25 C 19.601562 3.25 17.519531 2.359375 15.816406 0.574219 C 14.480469 -0.824219 13.351562 -2.589844 12.429688 -4.730469 C 11.597656 -6.664062 10.890625 -8.730469 10.304688 -10.941406 L 8.746094 -16.851562 C 8.152344 -19.175781 7.597656 -21.269531 7.082031 -23.128906 C 6.570312 -24.984375 6.007812 -26.914062 5.398438 -28.917969 L 3.203125 -36.210938 Z M 9.425781 -38.082031 L 11.617188 -30.8125 C 12.242188 -28.753906 12.820312 -26.773438 13.347656 -24.863281 C 13.875 -22.960938 14.433594 -20.84375 15.027344 -18.511719 L 16.589844 -12.609375 C 17.09375 -10.707031 17.695312 -8.9375 18.402344 -7.304688 C 19.015625 -5.878906 19.71875 -4.75 20.515625 -3.917969 C 20.9375 -3.472656 21.457031 -3.25 22.066406 -3.25 L 38.335938 -3.25 C 38.835938 -3.25 39.339844 -3.296875 39.84375 -3.386719 C 39.914062 -3.398438 40.039062 -3.488281 40.214844 -3.652344 C 40.269531 -3.699219 40.351562 -3.832031 40.464844 -4.039062 C 40.65625 -4.402344 40.855469 -4.894531 41.058594 -5.519531 C 42.398438 -9.394531 43.765625 -13.269531 45.15625 -17.144531 C 46.53125 -20.976562 47.785156 -24.632812 48.914062 -28.117188 C 50.03125 -31.566406 50.9375 -34.679688 51.640625 -37.457031 C 52.292969 -40.042969 52.617188 -42.09375 52.617188 -43.609375 C 52.617188 -44.847656 52.414062 -45.996094 52.011719 -47.0625 C 51.679688 -47.9375 51.167969 -48.644531 50.476562 -49.191406 C 49.902344 -49.640625 49 -49.867188 47.769531 -49.867188 C 46.152344 -49.867188 44.492188 -49.617188 42.785156 -49.109375 C 41.023438 -48.589844 39.382812 -47.894531 37.867188 -47.027344 C 36.449219 -46.21875 35.339844 -45.355469 34.539062 -44.441406 C 34.035156 -43.863281 33.785156 -43.390625 33.785156 -43.015625 C 33.785156 -43.359375 33.6875 -43.664062 33.492188 -43.925781 C 33.441406 -43.992188 33.394531 -44.042969 33.355469 -44.078125 C 33.371094 -44.066406 33.402344 -44.046875 33.453125 -44.015625 C 34.359375 -43.527344 35.464844 -42.9375 36.769531 -42.25 C 38.351562 -41.414062 39.921875 -40.246094 41.480469 -38.746094 C 43.15625 -37.132812 44.539062 -34.957031 45.625 -32.21875 C 46.695312 -29.53125 47.230469 -26.070312 47.230469 -21.84375 C 47.230469 -18.855469 46.949219 -15.953125 46.386719 -13.144531 C 45.8125 -10.265625 45.054688 -7.871094 44.109375 -5.957031 C 42.699219 -3.085938 40.871094 -1.652344 38.632812 -1.652344 C 36.613281 -1.652344 34.910156 -2.90625 33.523438 -5.410156 C 32.667969 -6.957031 31.800781 -8.980469 30.921875 -11.480469 C 30.082031 -13.871094 29.257812 -16.511719 28.445312 -19.402344 C 27.644531 -22.253906 26.871094 -25.152344 26.121094 -28.097656 C 25.382812 -31.007812 24.664062 -33.746094 23.972656 -36.320312 C 23.207031 -39.226562 22.59375 -41.972656 22.132812 -44.5625 C 21.574219 -47.703125 21.867188 -50.609375 23.015625 -53.285156 L 26.003906 -52.003906 L 26.003906 -48.753906 L 0 -48.753906 L 0 -52.003906 L 2.140625 -54.449219 C 4.183594 -52.664062 5.726562 -50.105469 6.777344 -46.777344 C 7.648438 -44.011719 8.535156 -41.105469 9.433594 -38.066406 Z M 9.425781 -38.082031 "/></g></g><g style="fill:#ffffff;fill-opacity:1;"><g transform="translate(235.015329, 211.862146)"><path style="stroke:none" d="M -1.394531 -24.589844 C -1.394531 -30.527344 -0.273438 -35.855469 1.964844 -40.582031 C 4.265625 -45.433594 7.664062 -49.277344 12.15625 -52.117188 C 16.648438 -54.953125 22.105469 -56.367188 28.527344 -56.367188 C 33.542969 -56.367188 37.859375 -55.269531 41.472656 -53.074219 C 45.074219 -50.882812 47.820312 -48.015625 49.710938 -44.46875 C 51.574219 -40.96875 52.507812 -37.242188 52.507812 -33.28125 C 52.507812 -30.007812 51.664062 -27.382812 49.980469 -25.414062 C 48.390625 -23.554688 46.277344 -22.25 43.644531 -21.5 C 41.386719 -20.859375 38.867188 -20.484375 36.085938 -20.378906 C 33.46875 -20.273438 30.738281 -20.285156 27.898438 -20.414062 C 25.199219 -20.535156 22.5625 -20.597656 19.984375 -20.597656 C 19.839844 -20.597656 19.667969 -20.578125 19.46875 -20.542969 C 20.273438 -20.691406 20.875 -21.125 21.269531 -21.839844 C 21.441406 -22.148438 21.527344 -22.421875 21.527344 -22.660156 C 21.527344 -22.941406 21.480469 -23.191406 21.386719 -23.40625 C 21.371094 -23.441406 21.359375 -23.46875 21.347656 -23.488281 C 21.355469 -23.476562 21.367188 -23.460938 21.386719 -23.433594 C 21.570312 -23.183594 21.902344 -22.851562 22.375 -22.4375 C 23.527344 -21.441406 25.050781 -20.398438 26.945312 -19.316406 C 28.839844 -18.234375 30.875 -17.328125 33.046875 -16.605469 C 35.089844 -15.921875 37.003906 -15.582031 38.78125 -15.582031 C 40.183594 -15.582031 41.246094 -15.714844 41.980469 -15.980469 C 42.753906 -16.261719 43.328125 -16.550781 43.707031 -16.839844 C 44.265625 -17.269531 44.714844 -17.644531 45.058594 -17.96875 C 46.105469 -18.953125 47.230469 -19.445312 48.4375 -19.445312 C 49.390625 -19.445312 50.289062 -19.140625 51.128906 -18.527344 C 52.296875 -17.679688 52.878906 -16.382812 52.878906 -14.636719 C 52.878906 -12.78125 52.371094 -10.738281 51.363281 -8.503906 C 50.382812 -6.335938 48.921875 -4.285156 46.984375 -2.34375 C 45.023438 -0.382812 42.546875 1.222656 39.554688 2.476562 C 36.550781 3.734375 33.050781 4.363281 29.046875 4.363281 C 25.070312 4.363281 21.257812 3.644531 17.605469 2.207031 C 13.960938 0.769531 10.726562 -1.25 7.902344 -3.851562 C 5.066406 -6.460938 2.816406 -9.515625 1.152344 -13.015625 C -0.542969 -16.578125 -1.394531 -20.4375 -1.394531 -24.589844 Z M 5.109375 -24.589844 C 5.109375 -21.414062 5.746094 -18.488281 7.019531 -15.808594 C 8.328125 -13.066406 10.089844 -10.675781 12.304688 -8.628906 C 14.535156 -6.578125 17.09375 -4.980469 19.988281 -3.839844 C 22.875 -2.703125 25.894531 -2.136719 29.046875 -2.136719 C 32.179688 -2.136719 34.84375 -2.597656 37.042969 -3.519531 C 39.25 -4.441406 41.03125 -5.582031 42.386719 -6.941406 C 43.769531 -8.320312 44.785156 -9.734375 45.441406 -11.183594 C 46.0625 -12.566406 46.375 -13.714844 46.375 -14.636719 C 46.375 -14.652344 46.375 -14.667969 46.375 -14.679688 C 46.375 -14.675781 46.375 -14.671875 46.378906 -14.664062 C 46.386719 -14.597656 46.40625 -14.519531 46.433594 -14.433594 C 46.582031 -13.972656 46.871094 -13.585938 47.308594 -13.269531 C 47.605469 -13.054688 47.980469 -12.945312 48.4375 -12.945312 C 48.792969 -12.945312 49.105469 -13.015625 49.382812 -13.160156 C 49.4375 -13.1875 49.488281 -13.21875 49.527344 -13.246094 L 49.515625 -13.234375 C 49.015625 -12.765625 48.402344 -12.25 47.671875 -11.6875 C 46.761719 -10.988281 45.605469 -10.382812 44.199219 -9.871094 C 42.75 -9.34375 40.945312 -9.082031 38.78125 -9.082031 C 36.300781 -9.082031 33.703125 -9.535156 30.992188 -10.4375 C 28.410156 -11.296875 25.988281 -12.375 23.722656 -13.671875 C 21.457031 -14.964844 19.585938 -16.25 18.113281 -17.53125 C 17.277344 -18.257812 16.621094 -18.941406 16.152344 -19.582031 C 15.402344 -20.597656 15.027344 -21.625 15.027344 -22.660156 C 15.027344 -23.539062 15.210938 -24.3125 15.578125 -24.980469 C 16.171875 -26.054688 17.070312 -26.707031 18.269531 -26.929688 C 18.867188 -27.042969 19.4375 -27.097656 19.984375 -27.097656 C 22.660156 -27.097656 25.394531 -27.035156 28.191406 -26.910156 C 30.847656 -26.789062 33.394531 -26.777344 35.828125 -26.871094 C 38.097656 -26.960938 40.109375 -27.253906 41.867188 -27.753906 C 43.242188 -28.144531 44.300781 -28.773438 45.039062 -29.636719 C 45.683594 -30.390625 46.003906 -31.605469 46.003906 -33.28125 C 46.003906 -36.160156 45.328125 -38.867188 43.972656 -41.414062 C 42.640625 -43.910156 40.683594 -45.945312 38.09375 -47.519531 C 35.519531 -49.085938 32.328125 -49.867188 28.527344 -49.867188 C 23.359375 -49.867188 19.058594 -48.785156 15.628906 -46.617188 C 12.199219 -44.453125 9.601562 -41.511719 7.839844 -37.796875 C 6.019531 -33.953125 5.109375 -29.550781 5.109375 -24.589844 Z M 13.429688 -38.1875 C 13.429688 -36.8125 13.65625 -35.46875 14.105469 -34.152344 C 14.480469 -33.058594 15.070312 -32.175781 15.875 -31.496094 C 16.535156 -30.941406 17.457031 -30.664062 18.648438 -30.664062 C 20.304688 -30.664062 21.988281 -30.722656 23.695312 -30.84375 C 25.292969 -30.953125 26.757812 -31.171875 28.085938 -31.5 C 29.125 -31.753906 29.914062 -32.101562 30.457031 -32.539062 C 30.523438 -32.59375 30.566406 -32.640625 30.582031 -32.679688 C 30.613281 -32.742188 30.625 -32.84375 30.625 -32.984375 C 30.625 -34.273438 30.320312 -35.394531 29.703125 -36.339844 C 28.980469 -37.453125 28.023438 -38.402344 26.835938 -39.195312 C 25.546875 -40.058594 24.1875 -40.699219 22.765625 -41.128906 C 21.335938 -41.554688 19.988281 -41.769531 18.722656 -41.769531 C 17.765625 -41.769531 16.832031 -41.582031 15.917969 -41.203125 C 15.101562 -40.863281 14.441406 -40.390625 13.941406 -39.789062 C 13.601562 -39.375 13.429688 -38.839844 13.429688 -38.1875 Z M 6.925781 -38.1875 C 6.925781 -40.402344 7.597656 -42.320312 8.9375 -43.9375 C 10.125 -45.367188 11.617188 -46.457031 13.425781 -47.207031 C 15.136719 -47.917969 16.902344 -48.269531 18.722656 -48.269531 C 20.625 -48.269531 22.59375 -47.964844 24.632812 -47.355469 C 26.675781 -46.742188 28.613281 -45.824219 30.441406 -44.605469 C 32.375 -43.316406 33.945312 -41.742188 35.152344 -39.882812 C 36.46875 -37.859375 37.128906 -35.558594 37.128906 -32.984375 C 37.128906 -30.714844 36.269531 -28.882812 34.550781 -27.488281 C 33.257812 -26.441406 31.621094 -25.671875 29.636719 -25.1875 C 27.945312 -24.769531 26.117188 -24.492188 24.148438 -24.355469 C 22.289062 -24.226562 20.457031 -24.164062 18.648438 -24.164062 C 15.875 -24.164062 13.554688 -24.949219 11.6875 -26.527344 C 9.964844 -27.976562 8.722656 -29.816406 7.957031 -32.042969 C 7.269531 -34.042969 6.925781 -36.089844 6.925781 -38.1875 Z M 6.925781 -38.1875 "/></g></g><g style="fill:#000000;fill-opacity:1;"><g transform="translate(154.486312, 211.862146)"><path style="stroke:none" d="M 0 -44.0625 C 0 -44.457031 0.125 -44.703125 0.375 -44.796875 C 0.625 -44.898438 0.769531 -44.976562 0.8125 -45.03125 C 1.40625 -45.320312 2.332031 -45.773438 3.59375 -46.390625 C 4.863281 -47.015625 6.300781 -47.707031 7.90625 -48.46875 C 9.519531 -49.238281 11.164062 -49.96875 12.84375 -50.65625 C 14.53125 -51.351562 16.09375 -51.9375 17.53125 -52.40625 C 18.96875 -52.882812 20.132812 -53.125 21.03125 -53.125 C 22.113281 -53.125 22.753906 -52.828125 22.953125 -52.234375 C 23.148438 -51.640625 23.25 -50.96875 23.25 -50.21875 L 23.25 -8.765625 C 23.25 -6.640625 23.4375 -4.894531 23.8125 -3.53125 C 24.1875 -2.164062 24.867188 -0.988281 25.859375 0 L 0.96875 0 C 1.957031 -0.988281 2.632812 -2.164062 3 -3.53125 C 3.375 -4.894531 3.5625 -6.640625 3.5625 -8.765625 L 3.5625 -37.296875 C 3.5625 -37.597656 3.546875 -38.144531 3.515625 -38.9375 C 3.492188 -39.726562 3.320312 -40.53125 3 -41.34375 C 2.6875 -42.164062 2.054688 -42.722656 1.109375 -43.015625 C 1.015625 -43.066406 0.804688 -43.140625 0.484375 -43.234375 C 0.160156 -43.335938 0 -43.613281 0 -44.0625 Z M 13.21875 -78.6875 C 16.488281 -78.6875 19.113281 -77.691406 21.09375 -75.703125 C 23.082031 -73.722656 24.078125 -71.097656 24.078125 -67.828125 C 24.078125 -64.554688 23.082031 -61.929688 21.09375 -59.953125 C 19.113281 -57.972656 16.488281 -56.984375 13.21875 -56.984375 C 9.957031 -56.984375 7.332031 -57.972656 5.34375 -59.953125 C 3.363281 -61.929688 2.375 -64.554688 2.375 -67.828125 C 2.375 -71.097656 3.363281 -73.722656 5.34375 -75.703125 C 7.332031 -77.691406 9.957031 -78.6875 13.21875 -78.6875 Z M 13.21875 -78.6875 "/></g></g><g style="fill:#000000;fill-opacity:1;"><g transform="translate(179.001586, 211.862146)"><path style="stroke:none" d="M 6.3125 -37.15625 C 5.425781 -40.175781 4.546875 -43.054688 3.671875 -45.796875 C 2.804688 -48.546875 1.582031 -50.617188 0 -52.015625 L 26 -52.015625 C 25.113281 -49.929688 24.890625 -47.640625 25.328125 -45.140625 C 25.773438 -42.640625 26.375 -39.976562 27.125 -37.15625 C 27.8125 -34.570312 28.523438 -31.816406 29.265625 -28.890625 C 30.015625 -25.972656 30.785156 -23.101562 31.578125 -20.28125 C 32.367188 -17.457031 33.171875 -14.878906 33.984375 -12.546875 C 34.804688 -10.222656 35.597656 -8.367188 36.359375 -6.984375 C 37.128906 -5.597656 37.890625 -4.90625 38.640625 -4.90625 C 39.523438 -4.90625 40.375 -5.734375 41.1875 -7.390625 C 42.007812 -9.046875 42.679688 -11.175781 43.203125 -13.78125 C 43.722656 -16.382812 43.984375 -19.070312 43.984375 -21.84375 C 43.984375 -25.65625 43.523438 -28.710938 42.609375 -31.015625 C 41.691406 -33.316406 40.5625 -35.113281 39.21875 -36.40625 C 37.882812 -37.695312 36.5625 -38.6875 35.25 -39.375 C 33.9375 -40.070312 32.820312 -40.664062 31.90625 -41.15625 C 30.988281 -41.65625 30.53125 -42.273438 30.53125 -43.015625 C 30.53125 -44.203125 31.050781 -45.390625 32.09375 -46.578125 C 33.132812 -47.773438 34.519531 -48.867188 36.25 -49.859375 C 37.988281 -50.847656 39.859375 -51.640625 41.859375 -52.234375 C 43.867188 -52.828125 45.835938 -53.125 47.765625 -53.125 C 49.753906 -53.125 51.328125 -52.664062 52.484375 -51.75 C 53.648438 -50.832031 54.503906 -49.65625 55.046875 -48.21875 C 55.597656 -46.78125 55.875 -45.242188 55.875 -43.609375 C 55.875 -41.828125 55.515625 -39.507812 54.796875 -36.65625 C 54.078125 -33.8125 53.144531 -30.628906 52 -27.109375 C 50.863281 -23.597656 49.601562 -19.910156 48.21875 -16.046875 C 46.832031 -12.179688 45.46875 -8.316406 44.125 -4.453125 C 43.632812 -2.921875 43.066406 -1.859375 42.421875 -1.265625 C 41.773438 -0.671875 41.101562 -0.3125 40.40625 -0.1875 C 39.71875 -0.0625 39.03125 0 38.34375 0 L 22.0625 0 C 20.53125 0 19.226562 -0.554688 18.15625 -1.671875 C 17.09375 -2.785156 16.175781 -4.234375 15.40625 -6.015625 C 14.644531 -7.796875 13.988281 -9.710938 13.4375 -11.765625 C 12.894531 -13.828125 12.378906 -15.800781 11.890625 -17.6875 C 11.296875 -20.007812 10.738281 -22.113281 10.21875 -24 C 9.695312 -25.882812 9.125 -27.835938 8.5 -29.859375 C 7.882812 -31.890625 7.15625 -34.320312 6.3125 -37.15625 Z M 6.3125 -37.15625 "/></g></g><g style="fill:#000000;fill-opacity:1;"><g transform="translate(235.015329, 211.862146)"><path style="stroke:none" d="M 1.859375 -24.59375 C 1.859375 -30.039062 2.875 -34.90625 4.90625 -39.1875 C 6.9375 -43.476562 9.929688 -46.875 13.890625 -49.375 C 17.859375 -51.875 22.738281 -53.125 28.53125 -53.125 C 32.9375 -53.125 36.6875 -52.179688 39.78125 -50.296875 C 42.875 -48.410156 45.226562 -45.957031 46.84375 -42.9375 C 48.457031 -39.914062 49.265625 -36.695312 49.265625 -33.28125 C 49.265625 -30.800781 48.679688 -28.878906 47.515625 -27.515625 C 46.347656 -26.160156 44.757812 -25.195312 42.75 -24.625 C 40.75 -24.0625 38.484375 -23.726562 35.953125 -23.625 C 33.429688 -23.53125 30.796875 -23.539062 28.046875 -23.65625 C 25.296875 -23.78125 22.609375 -23.84375 19.984375 -23.84375 C 19.640625 -23.84375 19.269531 -23.804688 18.875 -23.734375 C 18.476562 -23.660156 18.28125 -23.300781 18.28125 -22.65625 C 18.28125 -22.007812 18.9375 -21.117188 20.25 -19.984375 C 21.5625 -18.847656 23.253906 -17.679688 25.328125 -16.484375 C 27.410156 -15.296875 29.640625 -14.304688 32.015625 -13.515625 C 34.398438 -12.722656 36.65625 -12.328125 38.78125 -12.328125 C 40.5625 -12.328125 42 -12.523438 43.09375 -12.921875 C 44.1875 -13.316406 45.050781 -13.765625 45.6875 -14.265625 C 46.332031 -14.765625 46.863281 -15.210938 47.28125 -15.609375 C 47.707031 -16.003906 48.09375 -16.203125 48.4375 -16.203125 C 48.6875 -16.203125 48.945312 -16.101562 49.21875 -15.90625 C 49.488281 -15.707031 49.625 -15.285156 49.625 -14.640625 C 49.625 -13.253906 49.210938 -11.65625 48.390625 -9.84375 C 47.578125 -8.03125 46.34375 -6.296875 44.6875 -4.640625 C 43.03125 -2.984375 40.898438 -1.609375 38.296875 -0.515625 C 35.703125 0.566406 32.617188 1.109375 29.046875 1.109375 C 25.484375 1.109375 22.066406 0.46875 18.796875 -0.8125 C 15.523438 -2.101562 12.625 -3.910156 10.09375 -6.234375 C 7.570312 -8.566406 5.566406 -11.289062 4.078125 -14.40625 C 2.597656 -17.53125 1.859375 -20.925781 1.859375 -24.59375 Z M 10.171875 -38.1875 C 10.171875 -36.457031 10.457031 -34.757812 11.03125 -33.09375 C 11.601562 -31.4375 12.519531 -30.078125 13.78125 -29.015625 C 15.039062 -27.953125 16.664062 -27.421875 18.65625 -27.421875 C 20.382812 -27.421875 22.140625 -27.476562 23.921875 -27.59375 C 25.703125 -27.71875 27.347656 -27.96875 28.859375 -28.34375 C 30.367188 -28.71875 31.582031 -29.273438 32.5 -30.015625 C 33.414062 -30.753906 33.875 -31.742188 33.875 -32.984375 C 33.875 -34.921875 33.390625 -36.628906 32.421875 -38.109375 C 31.460938 -39.597656 30.203125 -40.863281 28.640625 -41.90625 C 27.078125 -42.945312 25.425781 -43.726562 23.6875 -44.25 C 21.957031 -44.769531 20.300781 -45.03125 18.71875 -45.03125 C 17.332031 -45.03125 15.984375 -44.753906 14.671875 -44.203125 C 13.359375 -43.660156 12.28125 -42.878906 11.4375 -41.859375 C 10.59375 -40.847656 10.171875 -39.625 10.171875 -38.1875 Z M 10.171875 -38.1875 "/></g></g><g style="fill:#000000;fill-opacity:1;"><g transform="translate(305.582415, 206.753231)"><path style="stroke:none" d="M 0.1875 -0.640625 C 0.132812 -0.441406 0.0351562 -0.304688 -0.109375 -0.234375 C -0.265625 -0.171875 -0.453125 -0.140625 -0.671875 -0.140625 L -3.359375 -0.140625 C -3.585938 -0.140625 -3.742188 -0.253906 -3.828125 -0.484375 C -3.910156 -0.710938 -3.953125 -1 -3.953125 -1.34375 C -3.960938 -1.6875 -3.953125 -2.035156 -3.921875 -2.390625 C -3.898438 -2.753906 -3.898438 -3.054688 -3.921875 -3.296875 C -3.941406 -3.710938 -4.035156 -3.988281 -4.203125 -4.125 C -4.367188 -4.269531 -4.5625 -4.28125 -4.78125 -4.15625 C -5.007812 -4.03125 -5.195312 -3.765625 -5.34375 -3.359375 C -5.632812 -2.578125 -5.929688 -1.9375 -6.234375 -1.4375 C -6.546875 -0.945312 -6.90625 -0.582031 -7.3125 -0.34375 C -7.726562 -0.113281 -8.226562 0 -8.8125 0 C -9.457031 0 -10.039062 -0.09375 -10.5625 -0.28125 C -11.09375 -0.46875 -11.5625 -0.816406 -11.96875 -1.328125 C -12.226562 -1.660156 -12.425781 -2.050781 -12.5625 -2.5 C -12.695312 -2.945312 -12.785156 -3.414062 -12.828125 -3.90625 C -12.878906 -4.394531 -12.910156 -4.859375 -12.921875 -5.296875 C -12.929688 -5.492188 -12.9375 -5.796875 -12.9375 -6.203125 C -12.9375 -6.609375 -12.925781 -7.03125 -12.90625 -7.46875 C -12.882812 -7.914062 -12.84375 -8.3125 -12.78125 -8.65625 C -12.726562 -9 -12.65625 -9.210938 -12.5625 -9.296875 C -12.476562 -9.367188 -12.347656 -9.414062 -12.171875 -9.4375 C -12.003906 -9.46875 -11.710938 -9.476562 -11.296875 -9.46875 C -10.890625 -9.46875 -10.265625 -9.457031 -9.421875 -9.4375 C -8.984375 -9.4375 -8.765625 -9.175781 -8.765625 -8.65625 C -8.765625 -8.382812 -8.773438 -8.078125 -8.796875 -7.734375 C -8.816406 -7.390625 -8.828125 -7.054688 -8.828125 -6.734375 C -8.828125 -6.421875 -8.785156 -6.179688 -8.703125 -6.015625 C -8.566406 -5.722656 -8.367188 -5.554688 -8.109375 -5.515625 C -7.847656 -5.472656 -7.625 -5.640625 -7.4375 -6.015625 C -7.320312 -6.234375 -7.203125 -6.5 -7.078125 -6.8125 C -6.960938 -7.132812 -6.835938 -7.445312 -6.703125 -7.75 C -6.296875 -8.625 -5.734375 -9.222656 -5.015625 -9.546875 C -4.304688 -9.878906 -3.523438 -9.941406 -2.671875 -9.734375 C -2.296875 -9.648438 -1.929688 -9.507812 -1.578125 -9.3125 C -1.222656 -9.125 -0.921875 -8.875 -0.671875 -8.5625 C -0.316406 -8.125 -0.0664062 -7.507812 0.078125 -6.71875 C 0.222656 -5.9375 0.289062 -5.03125 0.28125 -4 C 0.269531 -2.96875 0.238281 -1.847656 0.1875 -0.640625 Z M 0.1875 -0.640625 "/></g></g><g style="fill:#000000;fill-opacity:1;"><g transform="translate(305.582415, 194.952859)"><path style="stroke:none" d="M 0.234375 -6.125 C 0.460938 -5.113281 0.445312 -4.179688 0.1875 -3.328125 C -0.0625 -2.484375 -0.503906 -1.78125 -1.140625 -1.21875 C -1.785156 -0.65625 -2.570312 -0.285156 -3.5 -0.109375 C -4.34375 0.0351562 -5.191406 0.03125 -6.046875 -0.125 C -6.910156 -0.28125 -7.640625 -0.613281 -8.234375 -1.125 C -8.679688 -1.507812 -9.03125 -1.988281 -9.28125 -2.5625 C -9.539062 -3.144531 -9.703125 -3.769531 -9.765625 -4.4375 C -9.828125 -5.101562 -9.773438 -5.75 -9.609375 -6.375 C -9.453125 -6.976562 -9.203125 -7.46875 -8.859375 -7.84375 C -8.515625 -8.226562 -8.125 -8.519531 -7.6875 -8.71875 C -7.25 -8.925781 -6.816406 -9.0625 -6.390625 -9.125 C -5.972656 -9.1875 -5.609375 -9.203125 -5.296875 -9.171875 L -4.265625 -9.109375 C -4.085938 -9.109375 -4 -9.023438 -4 -8.859375 L -4 -3.875 C -3.5 -3.925781 -3.109375 -4.035156 -2.828125 -4.203125 C -2.554688 -4.367188 -2.492188 -4.644531 -2.640625 -5.03125 C -2.722656 -5.207031 -2.796875 -5.316406 -2.859375 -5.359375 C -2.929688 -5.398438 -3.007812 -5.421875 -3.09375 -5.421875 C -3.238281 -5.429688 -3.320312 -5.488281 -3.34375 -5.59375 C -3.375 -5.695312 -3.378906 -5.828125 -3.359375 -5.984375 L -3.09375 -8.28125 C -3.082031 -8.445312 -3.046875 -8.578125 -2.984375 -8.671875 C -2.929688 -8.765625 -2.832031 -8.8125 -2.6875 -8.8125 C -2.238281 -8.8125 -1.820312 -8.738281 -1.4375 -8.59375 C -1.0625 -8.445312 -0.726562 -8.179688 -0.4375 -7.796875 C -0.15625 -7.410156 0.0664062 -6.851562 0.234375 -6.125 Z M -5.796875 -3.921875 L -5.796875 -5.6875 C -5.929688 -5.6875 -6.097656 -5.664062 -6.296875 -5.625 C -6.492188 -5.582031 -6.632812 -5.476562 -6.71875 -5.3125 C -6.851562 -4.894531 -6.835938 -4.578125 -6.671875 -4.359375 C -6.515625 -4.148438 -6.222656 -4.003906 -5.796875 -3.921875 Z M -5.796875 -3.921875 "/></g></g><g style="fill:#000000;fill-opacity:1;"><g transform="translate(305.582415, 183.823143)"><path style="stroke:none" d="M 0.234375 -6.125 C 0.460938 -5.113281 0.445312 -4.179688 0.1875 -3.328125 C -0.0625 -2.484375 -0.503906 -1.78125 -1.140625 -1.21875 C -1.785156 -0.65625 -2.570312 -0.285156 -3.5 -0.109375 C -4.34375 0.0351562 -5.191406 0.03125 -6.046875 -0.125 C -6.910156 -0.28125 -7.640625 -0.613281 -8.234375 -1.125 C -8.679688 -1.507812 -9.03125 -1.988281 -9.28125 -2.5625 C -9.539062 -3.144531 -9.703125 -3.769531 -9.765625 -4.4375 C -9.828125 -5.101562 -9.773438 -5.75 -9.609375 -6.375 C -9.453125 -6.976562 -9.203125 -7.46875 -8.859375 -7.84375 C -8.515625 -8.226562 -8.125 -8.519531 -7.6875 -8.71875 C -7.25 -8.925781 -6.816406 -9.0625 -6.390625 -9.125 C -5.972656 -9.1875 -5.609375 -9.203125 -5.296875 -9.171875 L -4.265625 -9.109375 C -4.085938 -9.109375 -4 -9.023438 -4 -8.859375 L -4 -3.875 C -3.5 -3.925781 -3.109375 -4.035156 -2.828125 -4.203125 C -2.554688 -4.367188 -2.492188 -4.644531 -2.640625 -5.03125 C -2.722656 -5.207031 -2.796875 -5.316406 -2.859375 -5.359375 C -2.929688 -5.398438 -3.007812 -5.421875 -3.09375 -5.421875 C -3.238281 -5.429688 -3.320312 -5.488281 -3.34375 -5.59375 C -3.375 -5.695312 -3.378906 -5.828125 -3.359375 -5.984375 L -3.09375 -8.28125 C -3.082031 -8.445312 -3.046875 -8.578125 -2.984375 -8.671875 C -2.929688 -8.765625 -2.832031 -8.8125 -2.6875 -8.8125 C -2.238281 -8.8125 -1.820312 -8.738281 -1.4375 -8.59375 C -1.0625 -8.445312 -0.726562 -8.179688 -0.4375 -7.796875 C -0.15625 -7.410156 0.0664062 -6.851562 0.234375 -6.125 Z M -5.796875 -3.921875 L -5.796875 -5.6875 C -5.929688 -5.6875 -6.097656 -5.664062 -6.296875 -5.625 C -6.492188 -5.582031 -6.632812 -5.476562 -6.71875 -5.3125 C -6.851562 -4.894531 -6.835938 -4.578125 -6.671875 -4.359375 C -6.515625 -4.148438 -6.222656 -4.003906 -5.796875 -3.921875 Z M -5.796875 -3.921875 "/></g></g><g style="fill:#000000;fill-opacity:1;"><g transform="translate(305.582415, 172.693426)"><path style="stroke:none" d="M 0.109375 -5.21875 C 0.109375 -5.113281 0.078125 -5.007812 0.015625 -4.90625 C -0.0664062 -4.832031 -0.148438 -4.78125 -0.234375 -4.75 L -2.921875 -3.65625 L -0.46875 -3.71875 C -0.3125 -3.738281 -0.171875 -3.691406 -0.046875 -3.578125 C 0.0546875 -3.453125 0.109375 -3.316406 0.109375 -3.171875 L 0.109375 -0.546875 C 0.109375 -0.398438 0.0625 -0.28125 -0.03125 -0.1875 C -0.132812 -0.0820312 -0.273438 -0.03125 -0.453125 -0.03125 L -12.25 0 C -12.382812 0 -12.515625 -0.0507812 -12.640625 -0.15625 C -12.742188 -0.269531 -12.796875 -0.394531 -12.796875 -0.53125 L -12.796875 -2.9375 C -12.796875 -3.09375 -12.742188 -3.222656 -12.640625 -3.328125 C -12.515625 -3.429688 -12.382812 -3.484375 -12.25 -3.484375 L -6.59375 -3.59375 L -9.484375 -4.84375 C -9.609375 -4.882812 -9.695312 -4.945312 -9.75 -5.03125 C -9.769531 -5.09375 -9.785156 -5.179688 -9.796875 -5.296875 C -9.816406 -5.410156 -9.828125 -5.5 -9.828125 -5.5625 L -9.828125 -7.859375 C -9.828125 -8.035156 -9.738281 -8.175781 -9.5625 -8.28125 C -9.394531 -8.394531 -9.226562 -8.414062 -9.0625 -8.34375 L -4.828125 -6.46875 L -0.59375 -8.375 C -0.40625 -8.4375 -0.234375 -8.410156 -0.078125 -8.296875 C 0.0664062 -8.191406 0.140625 -8.039062 0.140625 -7.84375 Z M 0.109375 -5.21875 "/></g></g><g style="fill:#000000;fill-opacity:1;"><g transform="translate(305.582415, 162.34313)"><path style="stroke:none" d="M 0.265625 -0.484375 C 0.234375 -0.328125 0.15625 -0.222656 0.03125 -0.171875 C -0.0820312 -0.128906 -0.21875 -0.109375 -0.375 -0.109375 L -2.46875 -0.109375 C -2.644531 -0.109375 -2.765625 -0.195312 -2.828125 -0.375 C -2.898438 -0.5625 -2.9375 -0.785156 -2.9375 -1.046875 C -2.9375 -1.316406 -2.925781 -1.585938 -2.90625 -1.859375 C -2.882812 -2.128906 -2.882812 -2.363281 -2.90625 -2.5625 C -2.925781 -2.875 -3 -3.082031 -3.125 -3.1875 C -3.257812 -3.300781 -3.410156 -3.304688 -3.578125 -3.203125 C -3.753906 -3.109375 -3.90625 -2.90625 -4.03125 -2.59375 C -4.363281 -1.6875 -4.722656 -1.023438 -5.109375 -0.609375 C -5.492188 -0.203125 -6.019531 0 -6.6875 0 C -7.195312 0 -7.65625 -0.0703125 -8.0625 -0.21875 C -8.476562 -0.363281 -8.84375 -0.632812 -9.15625 -1.03125 C -9.46875 -1.414062 -9.664062 -1.894531 -9.75 -2.46875 C -9.832031 -3.039062 -9.878906 -3.582031 -9.890625 -4.09375 C -9.890625 -4.25 -9.890625 -4.484375 -9.890625 -4.796875 C -9.890625 -5.117188 -9.878906 -5.453125 -9.859375 -5.796875 C -9.847656 -6.140625 -9.820312 -6.441406 -9.78125 -6.703125 C -9.738281 -6.972656 -9.679688 -7.144531 -9.609375 -7.21875 C -9.546875 -7.269531 -9.445312 -7.300781 -9.3125 -7.3125 C -9.175781 -7.332031 -8.945312 -7.34375 -8.625 -7.34375 C -8.3125 -7.34375 -7.828125 -7.335938 -7.171875 -7.328125 C -6.828125 -7.328125 -6.65625 -7.125 -6.65625 -6.71875 C -6.65625 -6.5 -6.660156 -6.253906 -6.671875 -5.984375 C -6.691406 -5.710938 -6.695312 -5.457031 -6.6875 -5.21875 C -6.6875 -4.976562 -6.65625 -4.789062 -6.59375 -4.65625 C -6.507812 -4.425781 -6.363281 -4.296875 -6.15625 -4.265625 C -5.957031 -4.234375 -5.789062 -4.363281 -5.65625 -4.65625 C -5.570312 -4.820312 -5.476562 -5.03125 -5.375 -5.28125 C -5.28125 -5.53125 -5.179688 -5.773438 -5.078125 -6.015625 C -4.765625 -6.691406 -4.328125 -7.160156 -3.765625 -7.421875 C -3.210938 -7.679688 -2.597656 -7.722656 -1.921875 -7.546875 C -1.628906 -7.472656 -1.347656 -7.363281 -1.078125 -7.21875 C -0.816406 -7.082031 -0.582031 -6.890625 -0.375 -6.640625 C 0.0195312 -6.117188 0.242188 -5.316406 0.296875 -4.234375 C 0.347656 -3.148438 0.335938 -1.898438 0.265625 -0.484375 Z M 0.265625 -0.484375 "/></g></g><g clip-rule="nonzero" clip-path="url(#c39d736914)"><path style=" stroke:none;fill-rule:nonzero;fill:#000000;fill-opacity:0.996;" d="M 177.160156 98.757812 L 177.199219 98.757812 C 183.589844 99.105469 189.164062 100.945312 193.921875 104.285156 L 193.929688 104.292969 C 196.066406 105.859375 198.003906 107.613281 199.742188 109.554688 L 199.761719 109.578125 C 209.621094 121.984375 215.023438 128.398438 215.96875 128.8125 C 216.03125 128.835938 216.089844 128.867188 216.136719 128.914062 C 219.539062 132.042969 222.863281 133.65625 226.113281 133.753906 C 226.390625 133.761719 226.609375 133.992188 226.601562 134.269531 C 226.59375 134.539062 226.371094 134.753906 226.101562 134.753906 C 226.09375 134.753906 226.089844 134.753906 226.085938 134.753906 C 222.605469 134.648438 219.085938 132.96875 215.527344 129.710938 L 215.53125 129.710938 C 214.363281 129.121094 208.851562 122.625 198.996094 110.222656 C 197.304688 108.335938 195.421875 106.628906 193.347656 105.101562 C 188.75 101.878906 183.359375 100.097656 177.167969 99.757812 L 177.164062 99.757812 C 168.890625 100 164.304688 102.890625 163.40625 108.425781 L 163.414062 108.425781 C 163.453125 109.957031 163.640625 110.902344 163.976562 111.265625 C 167.1875 109.292969 170.179688 108.308594 172.949219 108.308594 C 176.199219 108.308594 179.148438 109.664062 181.792969 112.371094 C 181.820312 112.398438 181.84375 112.425781 181.863281 112.457031 C 181.972656 112.636719 182.078125 112.816406 182.175781 112.992188 C 185.203125 118.355469 183.4375 122.878906 176.875 126.574219 L 176.851562 126.585938 C 173.769531 128.121094 169.644531 128.886719 164.476562 128.886719 C 163.679688 128.886719 162.863281 128.871094 162.019531 128.835938 C 157.902344 128.683594 151.582031 127.46875 143.0625 125.179688 L 143.066406 125.179688 C 142.492188 125.0625 141.792969 125.003906 140.960938 125.003906 C 140.617188 125.003906 140.25 125.015625 139.859375 125.035156 L 139.863281 125.035156 C 139.738281 125.046875 139.625 125.058594 139.523438 125.074219 L 139.53125 125.074219 C 141.300781 126.347656 142.105469 127.644531 141.945312 128.964844 L 141.949219 128.964844 C 141.835938 130.042969 140.773438 130.867188 138.757812 131.4375 L 138.761719 131.4375 C 138.230469 131.625 137.605469 131.722656 136.894531 131.722656 C 134.75 131.722656 131.78125 130.863281 127.996094 129.148438 L 127.988281 129.148438 C 125.75 131.679688 123.050781 132.945312 119.894531 132.945312 C 117.890625 132.945312 115.699219 132.433594 113.328125 131.414062 C 113.074219 131.304688 112.957031 131.011719 113.0625 130.757812 C 113.144531 130.570312 113.332031 130.457031 113.523438 130.457031 C 113.589844 130.457031 113.65625 130.46875 113.722656 130.496094 C 115.945312 131.449219 117.988281 131.925781 119.851562 131.925781 C 122.855469 131.925781 125.394531 130.6875 127.472656 128.214844 C 127.570312 128.097656 127.710938 128.035156 127.855469 128.035156 C 127.925781 128.035156 128 128.050781 128.066406 128.082031 C 131.902344 129.847656 134.832031 130.734375 136.851562 130.734375 C 137.46875 130.734375 138 130.648438 138.449219 130.484375 L 138.488281 130.472656 C 140.066406 130.027344 140.890625 129.488281 140.953125 128.855469 L 140.953125 128.847656 C 141.078125 127.804688 140.230469 126.699219 138.417969 125.527344 C 138.308594 125.460938 138.234375 125.351562 138.203125 125.226562 C 138.121094 124.898438 138.222656 124.621094 138.5 124.40625 C 138.648438 124.292969 138.847656 124.203125 139.101562 124.140625 L 139.105469 124.140625 C 139.292969 124.09375 139.523438 124.058594 139.792969 124.035156 L 139.832031 124.035156 L 139.808594 124.035156 C 140.210938 124.015625 140.59375 124.003906 140.953125 124.003906 C 141.859375 124.003906 142.628906 124.070312 143.265625 124.199219 L 143.296875 124.207031 C 151.753906 126.480469 158.007812 127.6875 162.054688 127.835938 L 162.058594 127.835938 C 162.890625 127.871094 163.699219 127.886719 164.484375 127.886719 C 169.472656 127.886719 173.441406 127.160156 176.382812 125.703125 C 182.363281 122.335938 184.003906 118.265625 181.304688 113.484375 C 181.222656 113.339844 181.136719 113.195312 181.050781 113.050781 L 181.054688 113.050781 C 178.628906 110.574219 175.917969 109.335938 172.921875 109.335938 C 170.253906 109.335938 167.355469 110.316406 164.234375 112.285156 C 164.152344 112.335938 164.058594 112.359375 163.96875 112.359375 C 163.902344 112.359375 163.835938 112.347656 163.773438 112.320312 C 162.914062 111.960938 162.460938 110.640625 162.410156 108.363281 C 162.410156 108.332031 162.410156 108.304688 162.417969 108.273438 C 163.398438 102.183594 168.3125 99.011719 177.160156 98.757812 Z M 177.160156 98.757812 "/></g><g clip-rule="nonzero" clip-path="url(#555fdf064d)"><path style=" stroke:none;fill-rule:nonzero;fill:#000000;fill-opacity:1;" d="M 267.164062 127.265625 C 266.859375 127.265625 266.617188 127.023438 266.617188 126.722656 C 266.617188 124.0625 264.863281 121.902344 262.707031 121.902344 C 260.554688 121.902344 258.800781 124.0625 258.800781 126.722656 C 258.800781 127.023438 258.554688 127.265625 258.253906 127.265625 C 257.953125 127.265625 257.707031 127.023438 257.707031 126.722656 C 257.707031 123.460938 259.949219 120.808594 262.707031 120.808594 C 265.464844 120.808594 267.707031 123.460938 267.707031 126.722656 C 267.707031 127.023438 267.464844 127.265625 267.164062 127.265625 Z M 247.515625 132.289062 C 247.816406 132.289062 248.0625 132.535156 248.0625 132.835938 C 248.0625 136.132812 250.25 138.816406 252.941406 138.816406 C 255.628906 138.816406 257.816406 136.132812 257.816406 132.835938 C 257.816406 132.535156 258.0625 132.289062 258.363281 132.289062 C 258.664062 132.289062 258.910156 132.535156 258.910156 132.835938 C 258.910156 136.734375 256.230469 139.910156 252.941406 139.910156 C 249.648438 139.910156 246.96875 136.734375 246.96875 132.835938 C 246.96875 132.535156 247.214844 132.289062 247.515625 132.289062 Z M 238.863281 126.722656 C 238.863281 127.023438 238.617188 127.265625 238.316406 127.265625 C 238.015625 127.265625 237.769531 127.023438 237.769531 126.722656 C 237.769531 123.460938 240.011719 120.808594 242.769531 120.808594 C 245.527344 120.808594 247.773438 123.460938 247.773438 126.722656 C 247.773438 127.023438 247.527344 127.265625 247.226562 127.265625 C 246.921875 127.265625 246.679688 127.023438 246.679688 126.722656 C 246.679688 124.0625 244.925781 121.902344 242.769531 121.902344 C 240.617188 121.902344 238.863281 124.0625 238.863281 126.722656 Z M 273.980469 111.226562 L 275.628906 105.433594 C 275.796875 105.457031 275.960938 105.472656 276.132812 105.472656 C 276.246094 105.472656 276.359375 105.46875 276.476562 105.457031 C 277.378906 105.363281 278.1875 104.929688 278.757812 104.230469 C 279.324219 103.539062 279.585938 102.671875 279.496094 101.785156 C 279.308594 99.945312 277.648438 98.601562 275.796875 98.789062 C 274.894531 98.878906 274.085938 99.3125 273.515625 100.011719 C 272.949219 100.703125 272.6875 101.574219 272.777344 102.460938 C 272.894531 103.628906 273.609375 104.59375 274.589844 105.097656 L 272.910156 111.007812 C 272.542969 110.960938 272.171875 110.933594 271.792969 110.933594 L 235.011719 110.933594 C 234.808594 110.933594 234.605469 110.941406 234.402344 110.957031 L 232.738281 105.097656 C 233.714844 104.59375 234.429688 103.628906 234.550781 102.460938 C 234.640625 101.574219 234.378906 100.703125 233.8125 100.011719 C 233.242188 99.3125 232.433594 98.878906 231.53125 98.789062 C 229.683594 98.601562 228.019531 99.945312 227.832031 101.785156 C 227.742188 102.671875 228.003906 103.539062 228.570312 104.234375 C 229.140625 104.929688 229.949219 105.363281 230.851562 105.457031 C 230.964844 105.46875 231.082031 105.472656 231.195312 105.472656 C 231.363281 105.472656 231.53125 105.457031 231.695312 105.429688 L 233.3125 111.109375 C 229.601562 111.886719 226.808594 115.160156 226.808594 119.066406 L 226.808594 141.019531 C 226.808594 145.308594 230.203125 148.824219 234.464844 149.066406 L 234.464844 157.863281 C 234.464844 158.226562 234.679688 158.550781 235.015625 158.695312 C 235.132812 158.746094 235.257812 158.769531 235.378906 158.769531 C 235.605469 158.769531 235.828125 158.6875 236 158.527344 L 245.65625 149.648438 C 246.085938 149.28125 246.628906 149.078125 247.195312 149.078125 L 271.792969 149.078125 C 276.316406 149.078125 279.996094 145.429688 279.996094 140.945312 L 279.996094 119.066406 C 279.996094 115.332031 277.445312 112.179688 273.980469 111.226562 "/></g></g></svg>