<svg xmlns="http://www.w3.org/2000/svg" xmlns:xlink="http://www.w3.org/1999/xlink" width="1366" zoomAndPan="magnify" viewBox="0 0 1024.5 576" height="768" preserveAspectRatio="xMidYMid meet" version="1.2"><defs><clipPath id="a6532de761"><path d="M 42.34375 0.140625 L 589.960938 0.140625 L 589.960938 173.480469 L 42.34375 173.480469 Z M 42.34375 0.140625 "/></clipPath><clipPath id="b8c92d2aa8"><path d="M 590.113281 0.140625 L 846.214844 0.140625 L 846.214844 289.042969 L 590.113281 289.042969 Z M 590.113281 0.140625 "/></clipPath></defs><g id="0f925c954c"><g style="fill:#ffffff;fill-opacity:1;"><g transform="translate(23.506467, 544.678216)"><path style="stroke:none" d="M 3.578125 -373.371094 L 113.398438 -373.371094 C 137.851562 -373.371094 159.683594 -367.921875 178.890625 -357.023438 C 197.582031 -346.417969 213.65625 -332.207031 227.117188 -314.390625 C 240.132812 -297.164062 250.777344 -278.113281 259.050781 -257.242188 C 267.183594 -236.726562 273.191406 -215.761719 277.070312 -194.351562 C 280.933594 -173.039062 282.867188 -152.851562 282.867188 -133.789062 C 282.867188 -105.84375 280.160156 -82.460938 274.746094 -63.640625 C 269.011719 -43.707031 260.398438 -27.851562 248.90625 -16.078125 C 237.347656 -4.234375 223.40625 4.101562 207.085938 8.925781 C 191.925781 13.410156 174.765625 15.648438 155.609375 15.648438 L -34.207031 15.648438 L -7.488281 -11.066406 C -4.679688 -13.875 -2.742188 -17.222656 -1.683594 -21.109375 C -0.261719 -26.320312 0.445312 -33.355469 0.445312 -42.210938 L 0.445312 -315.507812 C 0.445312 -324.367188 -0.261719 -331.398438 -1.683594 -336.609375 C -2.742188 -340.496094 -4.679688 -343.84375 -7.488281 -346.652344 L -34.207031 -373.371094 Z M 3.578125 -342.070312 L 3.578125 -357.71875 L 14.644531 -368.785156 C 21.371094 -362.058594 25.996094 -354.078125 28.511719 -344.847656 C 30.667969 -336.941406 31.746094 -327.160156 31.746094 -315.507812 L 31.746094 -42.210938 C 31.746094 -30.558594 30.667969 -20.78125 28.511719 -12.875 C 25.996094 -3.640625 21.371094 4.335938 14.644531 11.066406 L 3.578125 0 L 3.578125 -15.648438 L 155.609375 -15.648438 C 171.746094 -15.648438 185.945312 -17.464844 198.210938 -21.089844 C 209.316406 -24.371094 218.746094 -29.988281 226.503906 -37.9375 C 234.328125 -45.957031 240.382812 -57.40625 244.664062 -72.292969 C 249.265625 -88.289062 251.566406 -108.785156 251.566406 -133.789062 C 251.566406 -150.972656 249.800781 -169.300781 246.273438 -188.765625 C 242.761719 -208.136719 237.320312 -227.117188 229.953125 -245.710938 C 222.722656 -263.949219 213.453125 -280.554688 202.144531 -295.523438 C 191.28125 -309.898438 178.382812 -321.324219 163.445312 -329.800781 C 149.027344 -337.980469 132.34375 -342.070312 113.398438 -342.070312 Z M 137.722656 -321.679688 C 136.175781 -321.679688 135.003906 -321.328125 134.207031 -320.625 C 132.664062 -319.265625 131.3125 -316.6875 130.148438 -312.894531 C 126.554688 -301.152344 124.753906 -280.320312 124.753906 -250.402344 L 124.753906 -107.316406 C 124.753906 -77.238281 126.476562 -55.898438 129.925781 -43.300781 C 131.640625 -37.027344 133.523438 -33.894531 135.574219 -33.894531 C 137.019531 -33.894531 138.609375 -35.101562 140.347656 -37.523438 C 143.941406 -42.527344 146.96875 -50.734375 149.433594 -62.148438 C 155.039062 -88.125 157.84375 -126.792969 157.84375 -178.144531 C 157.84375 -191.851562 157.667969 -206.03125 157.3125 -220.691406 C 156.964844 -235.109375 156.148438 -249.054688 154.875 -262.519531 C 153.628906 -275.621094 151.78125 -287.300781 149.328125 -297.558594 C 147.128906 -306.761719 144.378906 -313.882812 141.082031 -318.921875 C 140.25 -320.191406 139.496094 -321.03125 138.8125 -321.4375 C 138.542969 -321.597656 138.179688 -321.679688 137.722656 -321.679688 Z M 137.722656 -352.980469 C 143.941406 -352.980469 149.660156 -351.421875 154.875 -348.304688 C 159.679688 -345.429688 163.808594 -341.351562 167.273438 -336.0625 C 172.558594 -327.984375 176.726562 -317.578125 179.773438 -304.839844 C 182.566406 -293.15625 184.652344 -280.035156 186.035156 -265.472656 C 187.378906 -251.277344 188.238281 -236.601562 188.601562 -221.449219 C 188.964844 -206.539062 189.144531 -192.101562 189.144531 -178.144531 C 189.144531 -124.566406 186.105469 -83.699219 180.027344 -55.542969 C 172.40625 -20.242188 157.589844 -2.59375 135.574219 -2.59375 C 126.21875 -2.59375 118.28125 -5.882812 111.761719 -12.457031 C 106.375 -17.890625 102.363281 -25.421875 99.730469 -35.042969 C 95.546875 -50.34375 93.453125 -74.433594 93.453125 -107.316406 L 93.453125 -250.402344 C 93.453125 -283.445312 95.710938 -307.332031 100.222656 -322.058594 C 103.113281 -331.5 107.542969 -338.851562 113.515625 -344.109375 C 120.226562 -350.023438 128.296875 -352.980469 137.722656 -352.980469 Z M 137.722656 -352.980469 "/></g></g><g style="fill:#000000;fill-opacity:1;"><g transform="translate(23.506467, 544.678216)"><path style="stroke:none" d="M 3.578125 -357.71875 L 113.390625 -357.71875 C 135.097656 -357.71875 154.359375 -352.945312 171.171875 -343.40625 C 187.984375 -333.863281 202.46875 -321.046875 214.625 -304.953125 C 226.789062 -288.859375 236.75 -271.03125 244.5 -251.46875 C 252.25 -231.914062 257.972656 -211.941406 261.671875 -191.546875 C 265.367188 -171.160156 267.21875 -151.90625 267.21875 -133.78125 C 267.21875 -107.3125 264.710938 -85.375 259.703125 -67.96875 C 254.691406 -50.5625 247.359375 -36.90625 237.703125 -27 C 228.046875 -17.101562 216.359375 -10.128906 202.640625 -6.078125 C 188.929688 -2.023438 173.253906 0 155.609375 0 L 3.578125 0 C 8.347656 -4.769531 11.625 -10.429688 13.40625 -16.984375 C 15.195312 -23.546875 16.09375 -31.953125 16.09375 -42.203125 L 16.09375 -315.515625 C 16.09375 -325.765625 15.195312 -334.164062 13.40625 -340.71875 C 11.625 -347.28125 8.347656 -352.945312 3.578125 -357.71875 Z M 137.71875 -337.328125 C 126.75 -337.328125 119.238281 -330.707031 115.1875 -317.46875 C 111.132812 -304.238281 109.109375 -281.882812 109.109375 -250.40625 C 109.109375 -249.207031 109.109375 -246.222656 109.109375 -241.453125 C 109.109375 -236.691406 109.109375 -231.03125 109.109375 -224.46875 C 109.109375 -217.90625 109.109375 -211.34375 109.109375 -204.78125 C 109.109375 -198.226562 109.109375 -192.566406 109.109375 -187.796875 C 109.109375 -183.023438 109.109375 -180.046875 109.109375 -178.859375 C 109.109375 -177.671875 109.109375 -174.691406 109.109375 -169.921875 C 109.109375 -165.148438 109.109375 -159.484375 109.109375 -152.921875 C 109.109375 -146.367188 109.109375 -139.8125 109.109375 -133.25 C 109.109375 -126.6875 109.109375 -121.019531 109.109375 -116.25 C 109.109375 -111.488281 109.109375 -108.507812 109.109375 -107.3125 C 109.109375 -75.832031 111.015625 -53.117188 114.828125 -39.171875 C 118.640625 -25.222656 125.554688 -18.25 135.578125 -18.25 C 149.171875 -18.25 158.890625 -31.78125 164.734375 -58.84375 C 170.578125 -85.914062 173.5 -125.679688 173.5 -178.140625 C 173.5 -191.972656 173.316406 -206.28125 172.953125 -221.0625 C 172.597656 -235.851562 171.765625 -250.164062 170.453125 -264 C 169.140625 -277.832031 167.171875 -290.234375 164.546875 -301.203125 C 161.921875 -312.171875 158.460938 -320.929688 154.171875 -327.484375 C 149.878906 -334.046875 144.394531 -337.328125 137.71875 -337.328125 Z M 137.71875 -337.328125 "/></g></g><g style="fill:#ffffff;fill-opacity:1;"><g transform="translate(241.874703, 544.678216)"><path style="stroke:none" d="M -15.648438 -212.128906 C -15.648438 -215.542969 -14.949219 -218.652344 -13.550781 -221.453125 C -11.480469 -225.597656 -8.304688 -228.523438 -4.023438 -230.234375 C -3.878906 -230.292969 -3.765625 -230.339844 -3.679688 -230.378906 C -3.6875 -230.375 -3.71875 -230.359375 -3.78125 -230.328125 C -4.9375 -229.75 -6.054688 -228.921875 -7.132812 -227.84375 L -5.304688 -229.671875 L 10.425781 -237.429688 C 16.578125 -240.449219 23.558594 -243.816406 31.359375 -247.539062 C 39.367188 -251.355469 47.554688 -254.988281 55.925781 -258.4375 C 64.390625 -261.921875 72.265625 -264.859375 79.550781 -267.242188 C 88.046875 -270.027344 95.277344 -271.417969 101.234375 -271.417969 C 106.148438 -271.417969 110.421875 -270.582031 114.054688 -268.90625 C 119.703125 -266.300781 123.476562 -262.140625 125.382812 -256.425781 C 126.871094 -251.957031 127.617188 -247.089844 127.617188 -241.820312 L 127.617188 -42.210938 C 127.617188 -33.355469 128.328125 -26.320312 129.746094 -21.109375 C 130.808594 -17.222656 132.742188 -13.875 135.554688 -11.066406 L 162.269531 15.648438 L -33.132812 15.648438 L -6.417969 -11.066406 C -3.605469 -13.875 -1.671875 -17.222656 -0.609375 -21.109375 C 0.808594 -26.320312 1.519531 -33.355469 1.519531 -42.210938 L 1.519531 -179.574219 C 1.519531 -180.84375 1.464844 -183.304688 1.347656 -186.957031 C 1.285156 -188.960938 0.8125 -191.085938 -0.0742188 -193.335938 C 0.0703125 -192.964844 0.328125 -192.621094 0.691406 -192.300781 C 0.816406 -192.1875 0.921875 -192.109375 1.011719 -192.058594 C 0.949219 -192.09375 0.828125 -192.140625 0.652344 -192.195312 L -0.527344 -192.570312 L -1.632812 -193.121094 C -1.363281 -192.988281 -1.121094 -192.875 -0.90625 -192.789062 L -0.960938 -192.808594 C -1.265625 -192.917969 -1.707031 -193.058594 -2.277344 -193.234375 C -6.914062 -194.660156 -10.449219 -197.441406 -12.890625 -201.574219 C -14.730469 -204.683594 -15.648438 -208.203125 -15.648438 -212.128906 Z M 15.648438 -212.128906 C 15.648438 -213.90625 15.117188 -215.695312 14.054688 -217.496094 C 12.386719 -220.316406 10.011719 -222.203125 6.925781 -223.152344 C 9.304688 -222.421875 11.117188 -221.742188 12.363281 -221.117188 L 5.367188 -207.121094 L 10.078125 -222.042969 C 19.351562 -219.113281 25.675781 -213.371094 29.046875 -204.808594 C 31.261719 -199.1875 32.457031 -193.5625 32.632812 -187.933594 C 32.757812 -183.957031 32.820312 -181.167969 32.820312 -179.574219 L 32.820312 -42.210938 C 32.820312 -30.558594 31.742188 -20.78125 29.585938 -12.875 C 27.070312 -3.640625 22.445312 4.335938 15.714844 11.066406 L 4.648438 0 L 4.648438 -15.648438 L 124.488281 -15.648438 L 124.488281 0 L 113.421875 11.066406 C 106.691406 4.335938 102.066406 -3.640625 99.550781 -12.875 C 97.394531 -20.78125 96.316406 -30.558594 96.316406 -42.210938 L 96.316406 -241.820312 C 96.316406 -243.703125 96.105469 -245.273438 95.6875 -246.527344 C 96.640625 -243.675781 98.386719 -241.664062 100.9375 -240.488281 C 101.414062 -240.265625 101.808594 -240.128906 102.121094 -240.074219 C 101.953125 -240.105469 101.660156 -240.121094 101.234375 -240.121094 C 98.609375 -240.121094 94.628906 -239.246094 89.292969 -237.5 C 82.746094 -235.351562 75.59375 -232.683594 67.84375 -229.492188 C 60 -226.261719 52.328125 -222.859375 44.835938 -219.285156 C 37.136719 -215.613281 30.28125 -212.304688 24.273438 -209.359375 L 10.859375 -202.742188 L 3.933594 -216.777344 L 15 -205.710938 C 13.25 -203.957031 10.78125 -202.445312 7.601562 -201.175781 C 10.6875 -202.410156 12.96875 -204.503906 14.445312 -207.453125 C 15.25 -209.0625 15.648438 -210.617188 15.648438 -212.128906 Z M 63.675781 -394.476562 C 83.734375 -394.476562 100.0625 -388.179688 112.660156 -375.582031 C 125.253906 -362.988281 131.550781 -346.660156 131.550781 -326.597656 C 131.550781 -306.535156 125.253906 -290.207031 112.660156 -277.613281 C 100.0625 -265.019531 83.734375 -258.722656 63.675781 -258.722656 C 43.613281 -258.722656 27.285156 -265.019531 14.6875 -277.613281 C 2.09375 -290.207031 -4.203125 -306.535156 -4.203125 -326.597656 C -4.203125 -346.660156 2.09375 -362.988281 14.6875 -375.582031 C 27.285156 -388.179688 43.613281 -394.476562 63.675781 -394.476562 Z M 63.675781 -363.175781 C 52.257812 -363.175781 43.304688 -359.933594 36.820312 -353.449219 C 30.339844 -346.964844 27.097656 -338.015625 27.097656 -326.597656 C 27.097656 -315.179688 30.339844 -306.230469 36.820312 -299.746094 C 43.304688 -293.261719 52.257812 -290.019531 63.675781 -290.019531 C 75.09375 -290.019531 84.042969 -293.261719 90.527344 -299.746094 C 97.007812 -306.230469 100.25 -315.179688 100.25 -326.597656 C 100.25 -338.015625 97.007812 -346.964844 90.527344 -353.449219 C 84.042969 -359.933594 75.09375 -363.175781 63.675781 -363.175781 Z M 63.675781 -363.175781 "/></g></g><g style="fill:#ffffff;fill-opacity:1;"><g transform="translate(359.91692, 544.678216)"><path style="stroke:none" d="M 15.394531 -174.429688 C 11.128906 -188.886719 6.925781 -202.683594 2.78125 -215.828125 C -0.511719 -226.273438 -4.875 -233.875 -10.304688 -238.625 L -41.652344 -266.054688 L 148.9375 -266.054688 L 139.585938 -244.238281 C 136.523438 -237.089844 135.792969 -229.03125 137.390625 -220.0625 C 139.460938 -208.433594 142.234375 -196.027344 145.703125 -182.84375 C 149.046875 -170.429688 152.515625 -157.152344 156.109375 -143.007812 C 159.65625 -129.0625 163.316406 -115.355469 167.097656 -101.886719 C 170.824219 -88.613281 174.597656 -76.53125 178.421875 -65.640625 C 182.066406 -55.257812 185.523438 -47.113281 188.796875 -41.207031 C 189.824219 -39.351562 190.621094 -38.164062 191.1875 -37.640625 C 190.898438 -37.90625 190.46875 -38.171875 189.894531 -38.4375 C 188.710938 -38.984375 187.417969 -39.257812 186.015625 -39.257812 C 184.734375 -39.257812 183.558594 -39.003906 182.484375 -38.492188 C 181.980469 -38.253906 181.625 -38.035156 181.417969 -37.832031 C 182.179688 -38.574219 183.144531 -40.132812 184.316406 -42.507812 C 187.648438 -49.273438 190.429688 -58.246094 192.667969 -69.425781 C 194.96875 -80.933594 196.121094 -92.847656 196.121094 -105.167969 C 196.121094 -121.535156 194.285156 -134.332031 190.609375 -143.5625 C 187.03125 -152.558594 182.835938 -159.371094 178.019531 -164.007812 C 172.640625 -169.1875 167.445312 -173.101562 162.425781 -175.753906 C 156.0625 -179.117188 150.652344 -182 146.199219 -184.410156 C 141.949219 -186.707031 138.582031 -189.535156 136.097656 -192.890625 C 132.949219 -197.148438 131.371094 -201.890625 131.371094 -207.121094 C 131.371094 -216.761719 135.167969 -225.921875 142.757812 -234.597656 C 148.917969 -241.636719 156.933594 -247.980469 166.800781 -253.617188 C 176.199219 -258.988281 186.308594 -263.277344 197.128906 -266.480469 C 208.238281 -269.773438 219.199219 -271.417969 230.015625 -271.417969 C 243.167969 -271.417969 253.964844 -268.097656 262.410156 -261.449219 C 270.289062 -255.246094 276.054688 -247.332031 279.703125 -237.710938 C 283.003906 -229.007812 284.65625 -219.761719 284.65625 -209.980469 C 284.65625 -200.101562 282.769531 -187.675781 278.992188 -172.707031 C 275.449219 -158.660156 270.882812 -143.003906 265.292969 -125.746094 C 259.757812 -108.65625 253.621094 -90.734375 246.890625 -71.980469 C 240.234375 -53.433594 233.695312 -34.890625 227.273438 -16.34375 C 224.121094 -6.554688 219.984375 0.699219 214.875 5.417969 C 209.53125 10.347656 203.691406 13.378906 197.351562 14.511719 C 193.101562 15.269531 188.847656 15.648438 184.582031 15.648438 L 106.242188 15.648438 C 94.386719 15.648438 84.355469 11.355469 76.148438 2.761719 C 69.722656 -3.960938 64.292969 -12.476562 59.851562 -22.785156 C 55.851562 -32.078125 52.441406 -42.046875 49.621094 -52.6875 L 42.105469 -81.140625 C 39.246094 -92.332031 36.578125 -102.410156 34.101562 -111.375 C 31.632812 -120.304688 28.929688 -129.59375 25.988281 -139.238281 L 15.421875 -174.347656 Z M 45.390625 -183.371094 L 55.929688 -148.367188 C 58.949219 -138.457031 61.730469 -128.90625 64.269531 -119.710938 C 66.800781 -110.550781 69.5 -100.359375 72.367188 -89.132812 L 79.875 -60.707031 C 82.300781 -51.554688 85.210938 -43.042969 88.601562 -35.164062 C 91.554688 -28.304688 94.949219 -22.867188 98.777344 -18.859375 C 100.824219 -16.71875 103.3125 -15.648438 106.242188 -15.648438 L 184.582031 -15.648438 C 186.996094 -15.648438 189.417969 -15.867188 191.847656 -16.300781 C 192.183594 -16.359375 192.785156 -16.789062 193.644531 -17.582031 C 193.898438 -17.816406 194.296875 -18.441406 194.839844 -19.453125 C 195.769531 -21.191406 196.722656 -23.566406 197.695312 -26.582031 C 204.15625 -45.238281 210.734375 -63.898438 217.429688 -82.554688 C 224.050781 -101.003906 230.082031 -118.613281 235.515625 -135.390625 C 240.894531 -151.992188 245.269531 -166.984375 248.644531 -180.363281 C 251.785156 -192.816406 253.355469 -202.691406 253.355469 -209.980469 C 253.355469 -215.9375 252.382812 -221.480469 250.4375 -226.609375 C 248.839844 -230.820312 246.378906 -234.234375 243.046875 -236.855469 C 240.285156 -239.03125 235.9375 -240.121094 230.015625 -240.121094 C 222.226562 -240.121094 214.230469 -238.902344 206.019531 -236.472656 C 197.523438 -233.953125 189.628906 -230.609375 182.332031 -226.441406 C 175.507812 -222.542969 170.167969 -218.390625 166.3125 -213.984375 C 163.886719 -211.210938 162.671875 -208.921875 162.671875 -207.121094 C 162.671875 -208.773438 162.203125 -210.234375 161.257812 -211.511719 C 161.023438 -211.828125 160.804688 -212.070312 160.601562 -212.234375 C 160.675781 -212.175781 160.835938 -212.078125 161.082031 -211.945312 C 165.449219 -209.582031 170.773438 -206.746094 177.046875 -203.429688 C 184.671875 -199.402344 192.230469 -193.777344 199.730469 -186.554688 C 207.792969 -178.792969 214.449219 -168.316406 219.695312 -155.132812 C 224.84375 -142.1875 227.421875 -125.53125 227.421875 -105.167969 C 227.421875 -90.78125 226.066406 -76.820312 223.359375 -63.289062 C 220.589844 -49.429688 216.933594 -37.890625 212.394531 -28.679688 C 205.59375 -14.867188 196.796875 -7.960938 186.015625 -7.960938 C 176.289062 -7.960938 168.085938 -13.988281 161.410156 -26.046875 C 157.289062 -33.492188 153.117188 -43.234375 148.890625 -55.269531 C 144.84375 -66.792969 140.867188 -79.511719 136.964844 -93.429688 C 133.113281 -107.144531 129.382812 -121.101562 125.773438 -135.296875 C 122.214844 -149.296875 118.769531 -162.488281 115.433594 -174.878906 C 111.746094 -188.878906 108.796875 -202.109375 106.574219 -214.570312 C 103.882812 -229.683594 105.296875 -243.683594 110.816406 -256.570312 L 125.203125 -250.402344 L 125.203125 -234.753906 L 0 -234.753906 L 0 -250.402344 L 10.304688 -262.183594 C 20.136719 -253.578125 27.582031 -241.265625 32.632812 -225.242188 C 36.835938 -211.914062 41.097656 -197.929688 45.417969 -183.289062 Z M 45.390625 -183.371094 "/></g></g><g style="fill:#ffffff;fill-opacity:1;"><g transform="translate(629.625768, 544.678216)"><path style="stroke:none" d="M -6.707031 -118.40625 C -6.707031 -146.984375 -1.316406 -172.652344 9.46875 -195.398438 C 20.542969 -218.765625 36.898438 -237.277344 58.539062 -250.9375 C 80.167969 -264.59375 106.445312 -271.417969 137.363281 -271.417969 C 161.511719 -271.417969 182.285156 -266.128906 199.6875 -255.546875 C 217.039062 -245 230.257812 -231.191406 239.355469 -214.121094 C 248.332031 -197.273438 252.820312 -179.320312 252.820312 -160.257812 C 252.820312 -144.484375 248.765625 -131.855469 240.660156 -122.367188 C 233.007812 -113.414062 222.835938 -107.132812 210.144531 -103.527344 C 199.285156 -100.445312 187.15625 -98.640625 173.75 -98.117188 C 161.148438 -97.621094 148.007812 -97.683594 134.335938 -98.300781 C 121.332031 -98.886719 108.632812 -99.179688 96.226562 -99.179688 C 95.527344 -99.179688 94.699219 -99.089844 93.746094 -98.910156 C 97.625 -99.636719 100.519531 -101.722656 102.417969 -105.167969 C 103.238281 -106.65625 103.648438 -107.96875 103.648438 -109.105469 C 103.648438 -110.464844 103.425781 -111.667969 102.980469 -112.707031 C 102.910156 -112.875 102.847656 -113.007812 102.792969 -113.097656 C 102.824219 -113.042969 102.882812 -112.957031 102.972656 -112.835938 C 103.863281 -111.625 105.453125 -110.027344 107.738281 -108.046875 C 113.285156 -103.230469 120.621094 -98.21875 129.746094 -93.003906 C 138.867188 -87.792969 148.660156 -83.441406 159.125 -79.953125 C 168.96875 -76.671875 178.167969 -75.03125 186.730469 -75.03125 C 193.476562 -75.03125 198.609375 -75.671875 202.128906 -76.953125 C 205.859375 -78.308594 208.632812 -79.6875 210.457031 -81.085938 C 213.144531 -83.15625 215.3125 -84.964844 216.960938 -86.519531 C 222.003906 -91.261719 227.425781 -93.632812 233.234375 -93.632812 C 237.820312 -93.632812 242.140625 -92.160156 246.195312 -89.207031 C 251.804688 -85.128906 254.605469 -78.882812 254.605469 -70.472656 C 254.605469 -61.542969 252.175781 -51.703125 247.316406 -40.953125 C 242.597656 -30.511719 235.570312 -20.625 226.234375 -11.292969 C 216.792969 -1.851562 204.867188 5.890625 190.453125 11.929688 C 176 17.988281 159.136719 21.015625 139.867188 21.015625 C 120.71875 21.015625 102.351562 17.554688 84.765625 10.625 C 67.214844 3.710938 51.640625 -6.011719 38.042969 -18.539062 C 24.398438 -31.113281 13.566406 -45.824219 5.542969 -62.667969 C -2.625 -79.820312 -6.707031 -98.398438 -6.707031 -118.40625 Z M 24.59375 -118.40625 C 24.59375 -103.113281 27.664062 -89.023438 33.804688 -76.125 C 40.09375 -62.921875 48.574219 -51.398438 59.253906 -41.558594 C 69.984375 -31.667969 82.3125 -23.980469 96.238281 -18.496094 C 110.136719 -13.023438 124.679688 -10.285156 139.867188 -10.285156 C 154.941406 -10.285156 167.769531 -12.503906 178.355469 -16.9375 C 188.984375 -21.390625 197.566406 -26.886719 204.101562 -33.425781 C 210.746094 -40.066406 215.644531 -46.875 218.792969 -53.84375 C 221.800781 -60.5 223.304688 -66.042969 223.304688 -70.472656 C 223.304688 -70.554688 223.304688 -70.625 223.300781 -70.679688 C 223.300781 -70.671875 223.304688 -70.648438 223.308594 -70.609375 C 223.351562 -70.285156 223.441406 -69.917969 223.574219 -69.5 C 224.292969 -67.28125 225.695312 -65.414062 227.785156 -63.894531 C 229.214844 -62.851562 231.03125 -62.332031 233.234375 -62.332031 C 234.933594 -62.332031 236.445312 -62.675781 237.773438 -63.359375 C 238.050781 -63.503906 238.285156 -63.644531 238.472656 -63.785156 L 238.414062 -63.726562 C 236.007812 -61.460938 233.050781 -58.980469 229.539062 -56.277344 C 225.160156 -52.910156 219.589844 -49.996094 212.824219 -47.535156 C 205.851562 -45 197.152344 -43.730469 186.730469 -43.730469 C 174.78125 -43.730469 162.28125 -45.90625 149.226562 -50.257812 C 136.800781 -54.398438 125.132812 -59.589844 114.21875 -65.824219 C 103.3125 -72.058594 94.3125 -78.25 87.21875 -84.40625 C 83.183594 -87.910156 80.03125 -91.203125 77.765625 -94.28125 C 74.152344 -99.1875 72.347656 -104.128906 72.347656 -109.105469 C 72.347656 -113.34375 73.238281 -117.070312 75.011719 -120.285156 C 77.863281 -125.460938 82.1875 -128.589844 87.976562 -129.671875 C 90.835938 -130.210938 93.585938 -130.476562 96.226562 -130.476562 C 109.101562 -130.476562 122.273438 -130.175781 135.742188 -129.566406 C 148.539062 -128.992188 160.800781 -128.933594 172.523438 -129.394531 C 183.441406 -129.820312 193.132812 -131.238281 201.59375 -133.640625 C 208.21875 -135.519531 213.308594 -138.542969 216.863281 -142.703125 C 219.964844 -146.332031 221.519531 -152.183594 221.519531 -160.257812 C 221.519531 -174.109375 218.253906 -187.15625 211.730469 -199.402344 C 205.324219 -211.425781 195.890625 -221.226562 183.429688 -228.804688 C 171.019531 -236.347656 155.667969 -240.121094 137.363281 -240.121094 C 112.480469 -240.121094 91.773438 -234.902344 75.246094 -224.46875 C 58.730469 -214.042969 46.230469 -199.886719 37.75 -181.992188 C 28.980469 -163.488281 24.59375 -142.289062 24.59375 -118.40625 Z M 64.65625 -183.867188 C 64.65625 -177.261719 65.746094 -170.789062 67.921875 -164.445312 C 69.730469 -159.1875 72.570312 -154.921875 76.445312 -151.65625 C 79.613281 -148.984375 84.058594 -147.648438 89.789062 -147.648438 C 97.773438 -147.648438 105.878906 -147.933594 114.101562 -148.503906 C 121.789062 -149.039062 128.835938 -150.09375 135.238281 -151.667969 C 140.242188 -152.898438 144.046875 -154.566406 146.644531 -156.675781 C 146.96875 -156.9375 147.175781 -157.164062 147.261719 -157.347656 C 147.398438 -157.648438 147.46875 -158.140625 147.46875 -158.828125 C 147.46875 -165.035156 145.988281 -170.417969 143.023438 -174.980469 C 139.542969 -180.332031 134.941406 -184.917969 129.21875 -188.730469 C 123.003906 -192.875 116.46875 -195.976562 109.617188 -198.03125 C 102.734375 -200.097656 96.246094 -201.128906 90.144531 -201.128906 C 85.546875 -201.128906 81.046875 -200.214844 76.648438 -198.390625 C 72.714844 -196.753906 69.542969 -194.488281 67.136719 -191.585938 C 65.484375 -189.59375 64.65625 -187.019531 64.65625 -183.867188 Z M 33.355469 -183.867188 C 33.355469 -194.546875 36.585938 -203.78125 43.042969 -211.566406 C 48.742188 -218.441406 55.945312 -223.683594 64.648438 -227.296875 C 72.890625 -230.71875 81.386719 -232.429688 90.144531 -232.429688 C 99.308594 -232.429688 108.796875 -230.957031 118.609375 -228.011719 C 128.449219 -225.058594 137.773438 -220.648438 146.582031 -214.777344 C 155.882812 -208.574219 163.445312 -200.996094 169.265625 -192.039062 C 175.601562 -182.292969 178.769531 -171.222656 178.769531 -158.828125 C 178.769531 -147.894531 174.632812 -139.070312 166.359375 -132.363281 C 160.132812 -127.316406 152.25 -123.617188 142.710938 -121.273438 C 134.566406 -119.269531 125.75 -117.9375 116.269531 -117.28125 C 107.324219 -116.660156 98.496094 -116.347656 89.789062 -116.347656 C 76.4375 -116.347656 65.265625 -120.140625 56.269531 -127.722656 C 47.980469 -134.710938 42 -143.566406 38.320312 -154.28125 C 35.011719 -163.917969 33.355469 -173.78125 33.355469 -183.867188 Z M 33.355469 -183.867188 "/></g></g><g style="fill:#000000;fill-opacity:1;"><g transform="translate(241.874703, 544.678216)"><path style="stroke:none" d="M 0 -212.125 C 0 -214.03125 0.59375 -215.222656 1.78125 -215.703125 C 2.976562 -216.179688 3.695312 -216.539062 3.9375 -216.78125 C 6.800781 -218.207031 11.269531 -220.410156 17.34375 -223.390625 C 23.425781 -226.367188 30.34375 -229.707031 38.09375 -233.40625 C 45.84375 -237.101562 53.769531 -240.617188 61.875 -243.953125 C 69.988281 -247.296875 77.503906 -250.097656 84.421875 -252.359375 C 91.335938 -254.628906 96.941406 -255.765625 101.234375 -255.765625 C 106.484375 -255.765625 109.582031 -254.332031 110.53125 -251.46875 C 111.488281 -248.613281 111.96875 -245.394531 111.96875 -241.8125 L 111.96875 -42.203125 C 111.96875 -31.953125 112.859375 -23.546875 114.640625 -16.984375 C 116.429688 -10.429688 119.710938 -4.769531 124.484375 0 L 4.65625 0 C 9.425781 -4.769531 12.703125 -10.429688 14.484375 -16.984375 C 16.273438 -23.546875 17.171875 -31.953125 17.171875 -42.203125 L 17.171875 -179.578125 C 17.171875 -181.003906 17.109375 -183.625 16.984375 -187.4375 C 16.867188 -191.257812 16.035156 -195.132812 14.484375 -199.0625 C 12.929688 -203 9.890625 -205.6875 5.359375 -207.125 C 4.890625 -207.363281 3.878906 -207.71875 2.328125 -208.1875 C 0.773438 -208.664062 0 -209.976562 0 -212.125 Z M 63.671875 -378.828125 C 79.410156 -378.828125 92.050781 -374.054688 101.59375 -364.515625 C 111.132812 -354.972656 115.90625 -342.332031 115.90625 -326.59375 C 115.90625 -310.851562 111.132812 -298.210938 101.59375 -288.671875 C 92.050781 -279.140625 79.410156 -274.375 63.671875 -274.375 C 47.929688 -274.375 35.289062 -279.140625 25.75 -288.671875 C 16.21875 -298.210938 11.453125 -310.851562 11.453125 -326.59375 C 11.453125 -342.332031 16.21875 -354.972656 25.75 -364.515625 C 35.289062 -374.054688 47.929688 -378.828125 63.671875 -378.828125 Z M 63.671875 -378.828125 "/></g></g><g style="fill:#000000;fill-opacity:1;"><g transform="translate(359.91692, 544.678216)"><path style="stroke:none" d="M 30.40625 -178.859375 C 26.113281 -193.410156 21.878906 -207.300781 17.703125 -220.53125 C 13.535156 -233.769531 7.632812 -243.726562 0 -250.40625 L 125.203125 -250.40625 C 120.910156 -240.382812 119.835938 -229.351562 121.984375 -217.3125 C 124.128906 -205.269531 126.988281 -192.453125 130.5625 -178.859375 C 133.90625 -166.460938 137.363281 -153.226562 140.9375 -139.15625 C 144.519531 -125.082031 148.21875 -111.25 152.03125 -97.65625 C 155.84375 -84.0625 159.71875 -71.660156 163.65625 -60.453125 C 167.59375 -49.242188 171.40625 -40.300781 175.09375 -33.625 C 178.789062 -26.945312 182.429688 -23.609375 186.015625 -23.609375 C 190.304688 -23.609375 194.414062 -27.601562 198.34375 -35.59375 C 202.28125 -43.582031 205.5 -53.835938 208 -66.359375 C 210.507812 -78.878906 211.765625 -91.816406 211.765625 -105.171875 C 211.765625 -123.535156 209.554688 -138.257812 205.140625 -149.34375 C 200.734375 -160.4375 195.3125 -169.082031 188.875 -175.28125 C 182.4375 -181.476562 176.054688 -186.242188 169.734375 -189.578125 C 163.421875 -192.921875 158.054688 -195.785156 153.640625 -198.171875 C 149.222656 -200.554688 147.015625 -203.539062 147.015625 -207.125 C 147.015625 -212.84375 149.519531 -218.5625 154.53125 -224.28125 C 159.539062 -230.007812 166.21875 -235.257812 174.5625 -240.03125 C 182.914062 -244.800781 191.921875 -248.613281 201.578125 -251.46875 C 211.234375 -254.332031 220.710938 -255.765625 230.015625 -255.765625 C 239.554688 -255.765625 247.128906 -253.554688 252.734375 -249.140625 C 258.335938 -244.734375 262.445312 -239.070312 265.0625 -232.15625 C 267.6875 -225.238281 269 -217.847656 269 -209.984375 C 269 -201.398438 267.269531 -190.25 263.8125 -176.53125 C 260.351562 -162.820312 255.878906 -147.5 250.390625 -130.5625 C 244.910156 -113.632812 238.832031 -95.867188 232.15625 -77.265625 C 225.476562 -58.660156 218.921875 -40.0625 212.484375 -21.46875 C 210.097656 -14.070312 207.351562 -8.941406 204.25 -6.078125 C 201.15625 -3.210938 197.9375 -1.484375 194.59375 -0.890625 C 191.257812 -0.296875 187.921875 0 184.578125 0 L 106.25 0 C 98.851562 0 92.585938 -2.679688 87.453125 -8.046875 C 82.328125 -13.410156 77.914062 -20.382812 74.21875 -28.96875 C 70.53125 -37.5625 67.375 -46.804688 64.75 -56.703125 C 62.125 -66.597656 59.617188 -76.078125 57.234375 -85.140625 C 54.367188 -96.347656 51.6875 -106.484375 49.1875 -115.546875 C 46.6875 -124.609375 43.941406 -134.023438 40.953125 -143.796875 C 37.972656 -153.578125 34.457031 -165.265625 30.40625 -178.859375 Z M 30.40625 -178.859375 "/></g></g><g style="fill:#000000;fill-opacity:1;"><g transform="translate(629.625768, 544.678216)"><path style="stroke:none" d="M 8.9375 -118.40625 C 8.9375 -144.632812 13.828125 -168.0625 23.609375 -188.6875 C 33.390625 -209.320312 47.816406 -225.660156 66.890625 -237.703125 C 85.972656 -249.742188 109.460938 -255.765625 137.359375 -255.765625 C 158.585938 -255.765625 176.65625 -251.234375 191.5625 -242.171875 C 206.46875 -233.109375 217.796875 -221.300781 225.546875 -206.75 C 233.296875 -192.207031 237.171875 -176.710938 237.171875 -160.265625 C 237.171875 -148.335938 234.367188 -139.09375 228.765625 -132.53125 C 223.160156 -125.976562 215.523438 -121.328125 205.859375 -118.578125 C 196.203125 -115.835938 185.289062 -114.226562 173.125 -113.75 C 160.96875 -113.28125 148.269531 -113.34375 135.03125 -113.9375 C 121.800781 -114.53125 108.863281 -114.828125 96.21875 -114.828125 C 94.550781 -114.828125 92.765625 -114.644531 90.859375 -114.28125 C 88.953125 -113.925781 88 -112.203125 88 -109.109375 C 88 -106.003906 91.15625 -101.707031 97.46875 -96.21875 C 103.789062 -90.738281 111.957031 -85.132812 121.96875 -79.40625 C 131.988281 -73.6875 142.722656 -68.914062 154.171875 -65.09375 C 165.617188 -61.28125 176.472656 -59.375 186.734375 -59.375 C 195.316406 -59.375 202.226562 -60.328125 207.46875 -62.234375 C 212.71875 -64.148438 216.890625 -66.300781 219.984375 -68.6875 C 223.085938 -71.070312 225.65625 -73.21875 227.6875 -75.125 C 229.71875 -77.03125 231.566406 -77.984375 233.234375 -77.984375 C 234.421875 -77.984375 235.671875 -77.503906 236.984375 -76.546875 C 238.296875 -75.597656 238.953125 -73.570312 238.953125 -70.46875 C 238.953125 -63.789062 236.984375 -56.097656 233.046875 -47.390625 C 229.117188 -38.691406 223.160156 -30.347656 215.171875 -22.359375 C 207.179688 -14.367188 196.925781 -7.75 184.40625 -2.5 C 171.882812 2.738281 157.039062 5.359375 139.875 5.359375 C 122.695312 5.359375 106.238281 2.257812 90.5 -3.9375 C 74.757812 -10.132812 60.804688 -18.835938 48.640625 -30.046875 C 36.484375 -41.253906 26.828125 -54.367188 19.671875 -69.390625 C 12.515625 -84.421875 8.9375 -100.757812 8.9375 -118.40625 Z M 49 -183.875 C 49 -175.519531 50.367188 -167.347656 53.109375 -159.359375 C 55.859375 -151.367188 60.273438 -144.8125 66.359375 -139.6875 C 72.441406 -134.5625 80.25 -132 89.78125 -132 C 98.132812 -132 106.601562 -132.296875 115.1875 -132.890625 C 123.769531 -133.484375 131.695312 -134.675781 138.96875 -136.46875 C 146.25 -138.257812 152.09375 -140.941406 156.5 -144.515625 C 160.914062 -148.097656 163.125 -152.867188 163.125 -158.828125 C 163.125 -168.128906 160.796875 -176.351562 156.140625 -183.5 C 151.492188 -190.65625 145.410156 -196.738281 137.890625 -201.75 C 130.378906 -206.757812 122.453125 -210.515625 114.109375 -213.015625 C 105.765625 -215.523438 97.773438 -216.78125 90.140625 -216.78125 C 83.460938 -216.78125 76.960938 -215.46875 70.640625 -212.84375 C 64.328125 -210.21875 59.140625 -206.457031 55.078125 -201.5625 C 51.023438 -196.675781 49 -190.78125 49 -183.875 Z M 49 -183.875 "/></g></g><g style="fill:#000000;fill-opacity:1;"><g transform="translate(969.409584, 520.078607)"><path style="stroke:none" d="M 0.875 -3.0625 C 0.644531 -2.125 0.164062 -1.492188 -0.5625 -1.171875 C -1.289062 -0.859375 -2.179688 -0.703125 -3.234375 -0.703125 L -16.140625 -0.703125 C -17.253906 -0.703125 -18.015625 -1.253906 -18.421875 -2.359375 C -18.828125 -3.460938 -19.039062 -4.84375 -19.0625 -6.5 C -19.09375 -8.15625 -19.050781 -9.84375 -18.9375 -11.5625 C -18.820312 -13.28125 -18.796875 -14.722656 -18.859375 -15.890625 C -18.972656 -17.867188 -19.4375 -19.207031 -20.25 -19.90625 C -21.0625 -20.601562 -22.003906 -20.644531 -23.078125 -20.03125 C -24.160156 -19.414062 -25.050781 -18.117188 -25.75 -16.140625 C -27.144531 -12.421875 -28.582031 -9.367188 -30.0625 -6.984375 C -31.550781 -4.597656 -33.285156 -2.835938 -35.265625 -1.703125 C -37.242188 -0.566406 -39.628906 0 -42.421875 0 C -45.554688 0 -48.390625 -0.445312 -50.921875 -1.34375 C -53.453125 -2.25 -55.679688 -3.925781 -57.609375 -6.375 C -58.890625 -8 -59.847656 -9.890625 -60.484375 -12.046875 C -61.128906 -14.203125 -61.566406 -16.457031 -61.796875 -18.8125 C -62.023438 -21.164062 -62.171875 -23.390625 -62.234375 -25.484375 C -62.285156 -26.472656 -62.3125 -27.941406 -62.3125 -29.890625 C -62.3125 -31.835938 -62.253906 -33.875 -62.140625 -36 C -62.023438 -38.125 -61.835938 -40.015625 -61.578125 -41.671875 C -61.316406 -43.335938 -60.953125 -44.375 -60.484375 -44.78125 C -60.078125 -45.125 -59.46875 -45.351562 -58.65625 -45.46875 C -57.84375 -45.582031 -56.445312 -45.625 -54.46875 -45.59375 C -52.488281 -45.570312 -49.460938 -45.53125 -45.390625 -45.46875 C -43.296875 -45.46875 -42.25 -44.21875 -42.25 -41.71875 C -42.25 -40.382812 -42.289062 -38.882812 -42.375 -37.21875 C -42.457031 -35.5625 -42.5 -33.976562 -42.5 -32.46875 C -42.5 -30.957031 -42.296875 -29.796875 -41.890625 -28.984375 C -41.253906 -27.578125 -40.3125 -26.769531 -39.0625 -26.5625 C -37.8125 -26.363281 -36.71875 -27.171875 -35.78125 -28.984375 C -35.257812 -30.023438 -34.707031 -31.316406 -34.125 -32.859375 C -33.539062 -34.398438 -32.929688 -35.898438 -32.296875 -37.359375 C -30.316406 -41.546875 -27.609375 -44.425781 -24.171875 -46 C -20.742188 -47.570312 -16.960938 -47.863281 -12.828125 -46.875 C -11.023438 -46.46875 -9.28125 -45.796875 -7.59375 -44.859375 C -5.90625 -43.929688 -4.453125 -42.710938 -3.234375 -41.203125 C -1.546875 -39.097656 -0.351562 -36.15625 0.34375 -32.375 C 1.039062 -28.59375 1.375 -24.210938 1.34375 -19.234375 C 1.320312 -14.265625 1.164062 -8.875 0.875 -3.0625 Z M 0.875 -3.0625 "/></g></g><g style="fill:#000000;fill-opacity:1;"><g transform="translate(969.409584, 463.259252)"><path style="stroke:none" d="M 1.140625 -29.5 C 2.242188 -24.613281 2.179688 -20.132812 0.953125 -16.0625 C -0.265625 -11.988281 -2.414062 -8.597656 -5.5 -5.890625 C -8.582031 -3.179688 -12.363281 -1.394531 -16.84375 -0.53125 C -20.914062 0.175781 -25.015625 0.148438 -29.140625 -0.609375 C -33.273438 -1.367188 -36.769531 -2.96875 -39.625 -5.40625 C -41.78125 -7.269531 -43.484375 -9.597656 -44.734375 -12.390625 C -45.984375 -15.179688 -46.753906 -18.175781 -47.046875 -21.375 C -47.335938 -24.582031 -47.078125 -27.695312 -46.265625 -30.71875 C -45.503906 -33.632812 -44.296875 -36.003906 -42.640625 -37.828125 C -40.984375 -39.660156 -39.101562 -41.054688 -37 -42.015625 C -34.90625 -42.984375 -32.835938 -43.625 -30.796875 -43.9375 C -28.765625 -44.257812 -26.992188 -44.335938 -25.484375 -44.171875 L -20.515625 -43.90625 C -19.703125 -43.90625 -19.296875 -43.5 -19.296875 -42.6875 L -19.296875 -18.671875 C -16.847656 -18.910156 -14.96875 -19.4375 -13.65625 -20.25 C -12.351562 -21.0625 -12.050781 -22.398438 -12.75 -24.265625 C -13.15625 -25.078125 -13.515625 -25.582031 -13.828125 -25.78125 C -14.148438 -25.988281 -14.515625 -26.09375 -14.921875 -26.09375 C -15.617188 -26.15625 -16.023438 -26.429688 -16.140625 -26.921875 C -16.265625 -27.421875 -16.265625 -28.046875 -16.140625 -28.796875 L -14.921875 -39.890625 C -14.867188 -40.703125 -14.695312 -41.328125 -14.40625 -41.765625 C -14.113281 -42.203125 -13.617188 -42.421875 -12.921875 -42.421875 C -10.765625 -42.421875 -8.769531 -42.070312 -6.9375 -41.375 C -5.101562 -40.675781 -3.503906 -39.394531 -2.140625 -37.53125 C -0.773438 -35.664062 0.316406 -32.988281 1.140625 -29.5 Z M -27.9375 -18.859375 L -27.9375 -27.40625 C -28.570312 -27.40625 -29.367188 -27.300781 -30.328125 -27.09375 C -31.285156 -26.894531 -31.96875 -26.390625 -32.375 -25.578125 C -33.019531 -23.597656 -32.945312 -22.082031 -32.15625 -21.03125 C -31.375 -19.988281 -29.96875 -19.265625 -27.9375 -18.859375 Z M -27.9375 -18.859375 "/></g></g><g style="fill:#000000;fill-opacity:1;"><g transform="translate(969.409584, 409.669134)"><path style="stroke:none" d="M 1.140625 -29.5 C 2.242188 -24.613281 2.179688 -20.132812 0.953125 -16.0625 C -0.265625 -11.988281 -2.414062 -8.597656 -5.5 -5.890625 C -8.582031 -3.179688 -12.363281 -1.394531 -16.84375 -0.53125 C -20.914062 0.175781 -25.015625 0.148438 -29.140625 -0.609375 C -33.273438 -1.367188 -36.769531 -2.96875 -39.625 -5.40625 C -41.78125 -7.269531 -43.484375 -9.597656 -44.734375 -12.390625 C -45.984375 -15.179688 -46.753906 -18.175781 -47.046875 -21.375 C -47.335938 -24.582031 -47.078125 -27.695312 -46.265625 -30.71875 C -45.503906 -33.632812 -44.296875 -36.003906 -42.640625 -37.828125 C -40.984375 -39.660156 -39.101562 -41.054688 -37 -42.015625 C -34.90625 -42.984375 -32.835938 -43.625 -30.796875 -43.9375 C -28.765625 -44.257812 -26.992188 -44.335938 -25.484375 -44.171875 L -20.515625 -43.90625 C -19.703125 -43.90625 -19.296875 -43.5 -19.296875 -42.6875 L -19.296875 -18.671875 C -16.847656 -18.910156 -14.96875 -19.4375 -13.65625 -20.25 C -12.351562 -21.0625 -12.050781 -22.398438 -12.75 -24.265625 C -13.15625 -25.078125 -13.515625 -25.582031 -13.828125 -25.78125 C -14.148438 -25.988281 -14.515625 -26.09375 -14.921875 -26.09375 C -15.617188 -26.15625 -16.023438 -26.429688 -16.140625 -26.921875 C -16.265625 -27.421875 -16.265625 -28.046875 -16.140625 -28.796875 L -14.921875 -39.890625 C -14.867188 -40.703125 -14.695312 -41.328125 -14.40625 -41.765625 C -14.113281 -42.203125 -13.617188 -42.421875 -12.921875 -42.421875 C -10.765625 -42.421875 -8.769531 -42.070312 -6.9375 -41.375 C -5.101562 -40.675781 -3.503906 -39.394531 -2.140625 -37.53125 C -0.773438 -35.664062 0.316406 -32.988281 1.140625 -29.5 Z M -27.9375 -18.859375 L -27.9375 -27.40625 C -28.570312 -27.40625 -29.367188 -27.300781 -30.328125 -27.09375 C -31.285156 -26.894531 -31.96875 -26.390625 -32.375 -25.578125 C -33.019531 -23.597656 -32.945312 -22.082031 -32.15625 -21.03125 C -31.375 -19.988281 -29.96875 -19.265625 -27.9375 -18.859375 Z M -27.9375 -18.859375 "/></g></g><g style="fill:#000000;fill-opacity:1;"><g transform="translate(969.409584, 356.079017)"><path style="stroke:none" d="M 0.53125 -25.140625 C 0.53125 -24.609375 0.382812 -24.113281 0.09375 -23.65625 C -0.320312 -23.300781 -0.734375 -23.039062 -1.140625 -22.875 L -14.046875 -17.625 L -2.265625 -17.890625 C -1.515625 -18.003906 -0.847656 -17.769531 -0.265625 -17.1875 C 0.265625 -16.613281 0.53125 -15.976562 0.53125 -15.28125 L 0.53125 -2.625 C 0.53125 -1.925781 0.296875 -1.34375 -0.171875 -0.875 C -0.640625 -0.40625 -1.3125 -0.171875 -2.1875 -0.171875 L -59 0 C -59.644531 0 -60.253906 -0.257812 -60.828125 -0.78125 C -61.359375 -1.3125 -61.625 -1.894531 -61.625 -2.53125 L -61.625 -14.140625 C -61.625 -14.898438 -61.359375 -15.539062 -60.828125 -16.0625 C -60.253906 -16.53125 -59.644531 -16.765625 -59 -16.765625 L -31.765625 -17.28125 L -45.640625 -23.296875 C -46.285156 -23.535156 -46.722656 -23.859375 -46.953125 -24.265625 C -47.066406 -24.554688 -47.15625 -24.976562 -47.21875 -25.53125 C -47.28125 -26.082031 -47.3125 -26.503906 -47.3125 -26.796875 L -47.3125 -37.875 C -47.3125 -38.695312 -46.898438 -39.367188 -46.078125 -39.890625 C -45.265625 -40.410156 -44.453125 -40.5 -43.640625 -40.15625 L -23.21875 -31.15625 L -2.875 -40.328125 C -1.945312 -40.617188 -1.101562 -40.5 -0.34375 -39.96875 C 0.351562 -39.445312 0.703125 -38.722656 0.703125 -37.796875 Z M 0.53125 -25.140625 "/></g></g><g style="fill:#000000;fill-opacity:1;"><g transform="translate(969.409584, 306.241848)"><path style="stroke:none" d="M 1.3125 -2.359375 C 1.132812 -1.597656 0.753906 -1.101562 0.171875 -0.875 C -0.410156 -0.644531 -1.078125 -0.53125 -1.828125 -0.53125 L -11.875 -0.53125 C -12.738281 -0.53125 -13.332031 -0.960938 -13.65625 -1.828125 C -13.976562 -2.703125 -14.140625 -3.78125 -14.140625 -5.0625 C -14.140625 -6.34375 -14.09375 -7.632812 -14 -8.9375 C -13.914062 -10.25 -13.90625 -11.375 -13.96875 -12.3125 C -14.082031 -13.820312 -14.457031 -14.835938 -15.09375 -15.359375 C -15.738281 -15.878906 -16.46875 -15.90625 -17.28125 -15.4375 C -18.09375 -14.976562 -18.789062 -13.992188 -19.375 -12.484375 C -21 -8.117188 -22.742188 -4.945312 -24.609375 -2.96875 C -26.472656 -0.988281 -29.003906 0 -32.203125 0 C -34.648438 0 -36.863281 -0.347656 -38.84375 -1.046875 C -40.820312 -1.742188 -42.566406 -3.050781 -44.078125 -4.96875 C -45.585938 -6.832031 -46.546875 -9.144531 -46.953125 -11.90625 C -47.359375 -14.675781 -47.59375 -17.28125 -47.65625 -19.71875 C -47.65625 -20.476562 -47.65625 -21.613281 -47.65625 -23.125 C -47.65625 -24.644531 -47.609375 -26.234375 -47.515625 -27.890625 C -47.429688 -29.546875 -47.285156 -31.015625 -47.078125 -32.296875 C -46.878906 -33.578125 -46.609375 -34.390625 -46.265625 -34.734375 C -45.972656 -35.023438 -45.503906 -35.195312 -44.859375 -35.25 C -44.222656 -35.3125 -43.132812 -35.34375 -41.59375 -35.34375 C -40.050781 -35.34375 -37.707031 -35.316406 -34.5625 -35.265625 C -32.875 -35.265625 -32.03125 -34.300781 -32.03125 -32.375 C -32.03125 -31.332031 -32.070312 -30.15625 -32.15625 -28.84375 C -32.25 -27.53125 -32.28125 -26.289062 -32.25 -25.125 C -32.21875 -23.96875 -32.054688 -23.070312 -31.765625 -22.4375 C -31.359375 -21.320312 -30.660156 -20.691406 -29.671875 -20.546875 C -28.679688 -20.410156 -27.867188 -21.039062 -27.234375 -22.4375 C -26.828125 -23.25 -26.390625 -24.25 -25.921875 -25.4375 C -25.453125 -26.632812 -24.957031 -27.816406 -24.4375 -28.984375 C -22.925781 -32.234375 -20.832031 -34.484375 -18.15625 -35.734375 C -15.476562 -36.992188 -12.507812 -37.1875 -9.25 -36.3125 C -7.851562 -35.957031 -6.515625 -35.445312 -5.234375 -34.78125 C -3.953125 -34.113281 -2.816406 -33.164062 -1.828125 -31.9375 C 0.0859375 -29.4375 1.175781 -25.582031 1.4375 -20.375 C 1.695312 -15.164062 1.65625 -9.160156 1.3125 -2.359375 Z M 1.3125 -2.359375 "/></g></g><g clip-rule="nonzero" clip-path="url(#a6532de761)"><path style=" stroke:none;fill-rule:nonzero;fill:#000000;fill-opacity:0.996;" d="M 351.046875 0.0820312 L 351.246094 0.0820312 C 382.019531 1.75 408.855469 10.617188 431.761719 26.6875 L 431.804688 26.71875 C 442.082031 34.273438 451.410156 42.722656 459.789062 52.066406 L 459.878906 52.175781 C 507.355469 111.917969 533.367188 142.789062 537.914062 144.785156 L 537.917969 144.785156 C 538.21875 144.894531 538.492188 145.0625 538.726562 145.277344 C 555.101562 160.34375 571.117188 168.113281 586.769531 168.589844 C 588.101562 168.628906 589.148438 169.738281 589.109375 171.066406 C 589.066406 172.371094 587.996094 173.402344 586.699219 173.402344 C 586.675781 173.402344 586.648438 173.402344 586.625 173.402344 C 569.878906 172.894531 552.933594 164.800781 535.789062 149.121094 L 535.816406 149.121094 C 530.1875 146.277344 503.644531 114.996094 456.191406 55.277344 L 456.195312 55.277344 C 448.050781 46.195312 438.980469 37.976562 428.988281 30.628906 C 406.863281 15.105469 380.902344 6.527344 351.09375 4.898438 L 351.0625 4.898438 C 311.230469 6.0625 289.152344 19.96875 284.828125 46.617188 L 284.863281 46.617188 C 285.046875 53.996094 285.949219 58.554688 287.570312 60.300781 C 303.027344 50.804688 317.429688 46.054688 330.777344 46.054688 C 346.421875 46.054688 360.617188 52.582031 373.363281 65.628906 C 373.484375 65.757812 373.59375 65.894531 373.6875 66.046875 C 374.21875 66.90625 374.726562 67.761719 375.207031 68.617188 C 389.777344 94.429688 381.269531 116.226562 349.679688 134.007812 L 349.574219 134.066406 C 334.722656 141.460938 314.855469 145.15625 289.972656 145.15625 C 286.148438 145.15625 282.207031 145.070312 278.144531 144.894531 C 258.316406 144.175781 227.890625 138.3125 186.863281 127.300781 L 186.878906 127.300781 C 184.125 126.734375 180.746094 126.453125 176.742188 126.453125 C 175.085938 126.453125 173.320312 126.503906 171.449219 126.597656 L 171.464844 126.597656 C 170.855469 126.652344 170.3125 126.71875 169.828125 126.796875 L 169.863281 126.796875 C 178.378906 132.921875 182.257812 139.164062 181.5 145.523438 C 180.960938 150.722656 175.84375 154.691406 166.144531 157.421875 L 166.164062 157.421875 C 163.601562 158.339844 160.601562 158.796875 157.160156 158.796875 C 146.839844 158.796875 132.558594 154.671875 114.316406 146.417969 L 114.28125 146.417969 C 103.503906 158.59375 90.511719 164.679688 75.3125 164.679688 C 65.660156 164.679688 55.121094 162.226562 43.6875 157.320312 C 42.464844 156.796875 41.898438 155.378906 42.425781 154.15625 C 42.816406 153.246094 43.707031 152.699219 44.640625 152.699219 C 44.960938 152.699219 45.28125 152.761719 45.59375 152.894531 C 56.289062 157.488281 66.125 159.78125 75.101562 159.78125 C 89.5625 159.78125 101.796875 153.828125 111.800781 141.917969 C 112.269531 141.359375 112.953125 141.054688 113.648438 141.054688 C 113.988281 141.054688 114.332031 141.128906 114.65625 141.277344 C 133.140625 149.78125 147.242188 154.035156 156.96875 154.035156 C 159.941406 154.035156 162.5 153.636719 164.65625 152.84375 L 164.835938 152.785156 C 172.453125 150.640625 176.40625 148.046875 176.703125 145.003906 L 176.710938 144.953125 C 177.308594 139.9375 173.238281 134.609375 164.503906 128.976562 C 163.984375 128.644531 163.617188 128.125 163.46875 127.523438 C 163.082031 125.933594 163.558594 124.617188 164.898438 123.570312 C 165.605469 123.019531 166.574219 122.59375 167.804688 122.292969 C 168.726562 122.070312 169.832031 121.902344 171.121094 121.796875 L 171.320312 121.785156 L 171.199219 121.789062 C 173.140625 121.6875 174.980469 121.640625 176.71875 121.640625 C 181.066406 121.640625 184.777344 121.953125 187.847656 122.582031 L 187.992188 122.617188 C 228.726562 133.554688 258.835938 139.375 278.320312 140.082031 L 278.335938 140.082031 C 282.351562 140.253906 286.242188 140.339844 290.011719 140.339844 C 314.042969 140.339844 333.140625 136.832031 347.304688 129.8125 L 347.3125 129.8125 C 376.101562 113.609375 384 94 371.007812 70.980469 C 370.617188 70.285156 370.207031 69.589844 369.777344 68.886719 L 369.808594 68.886719 C 358.125 56.96875 345.070312 51.007812 330.640625 51.007812 C 317.789062 51.007812 303.84375 55.738281 288.808594 65.203125 C 288.417969 65.449219 287.972656 65.574219 287.523438 65.574219 C 287.207031 65.574219 286.886719 65.511719 286.585938 65.382812 C 282.449219 63.644531 280.261719 57.292969 280.03125 46.328125 C 280.027344 46.183594 280.039062 46.039062 280.0625 45.894531 C 284.796875 16.566406 308.457031 1.296875 351.046875 0.0820312 Z M 351.046875 0.0820312 "/></g><g clip-rule="nonzero" clip-path="url(#b8c92d2aa8)"><path style=" stroke:none;fill-rule:nonzero;fill:#000000;fill-opacity:1;" d="M 784.417969 137.34375 C 782.964844 137.34375 781.789062 136.171875 781.789062 134.71875 C 781.789062 121.921875 773.34375 111.507812 762.96875 111.507812 C 752.59375 111.507812 744.148438 121.921875 744.148438 134.71875 C 744.148438 136.171875 742.972656 137.34375 741.519531 137.34375 C 740.066406 137.34375 738.890625 136.171875 738.890625 134.71875 C 738.890625 119.023438 749.691406 106.257812 762.96875 106.257812 C 776.246094 106.257812 787.046875 119.023438 787.046875 134.71875 C 787.046875 136.171875 785.871094 137.34375 784.417969 137.34375 Z M 689.816406 161.535156 C 691.269531 161.535156 692.445312 162.710938 692.445312 164.160156 C 692.445312 180.042969 702.980469 192.964844 715.933594 192.964844 C 728.882812 192.964844 739.421875 180.042969 739.421875 164.160156 C 739.421875 162.710938 740.597656 161.535156 742.050781 161.535156 C 743.503906 161.535156 744.679688 162.710938 744.679688 164.160156 C 744.679688 182.941406 731.785156 198.21875 715.933594 198.21875 C 700.082031 198.21875 687.183594 182.941406 687.183594 164.160156 C 687.183594 162.710938 688.363281 161.535156 689.816406 161.535156 Z M 648.152344 134.71875 C 648.152344 136.171875 646.972656 137.34375 645.519531 137.34375 C 644.066406 137.34375 642.890625 136.171875 642.890625 134.71875 C 642.890625 119.023438 653.691406 106.257812 666.96875 106.257812 C 680.246094 106.257812 691.046875 119.023438 691.046875 134.71875 C 691.046875 136.171875 689.871094 137.34375 688.417969 137.34375 C 686.964844 137.34375 685.789062 136.171875 685.789062 134.71875 C 685.789062 121.921875 677.34375 111.507812 666.96875 111.507812 C 656.59375 111.507812 648.152344 121.921875 648.152344 134.71875 Z M 817.253906 60.121094 L 825.191406 32.210938 C 825.984375 32.328125 826.789062 32.40625 827.613281 32.40625 C 828.15625 32.40625 828.707031 32.382812 829.261719 32.324219 C 833.601562 31.890625 837.503906 29.796875 840.253906 26.433594 C 842.976562 23.101562 844.234375 18.917969 843.796875 14.648438 C 842.894531 5.800781 834.910156 -0.671875 825.992188 0.222656 C 821.648438 0.660156 817.746094 2.75 814.996094 6.113281 C 812.273438 9.449219 811.015625 13.632812 811.449219 17.902344 C 812.023438 23.523438 815.464844 28.179688 820.179688 30.601562 L 812.085938 59.066406 C 810.328125 58.828125 808.539062 58.695312 806.714844 58.695312 L 629.613281 58.695312 C 628.625 58.695312 627.648438 58.742188 626.679688 58.8125 L 618.65625 30.601562 C 623.371094 28.179688 626.8125 23.523438 627.386719 17.902344 C 627.824219 13.632812 626.5625 9.449219 623.839844 6.113281 C 621.089844 2.75 617.1875 0.660156 612.847656 0.222656 C 603.945312 -0.679688 595.941406 5.796875 595.039062 14.648438 C 594.601562 18.917969 595.863281 23.105469 598.585938 26.4375 C 601.332031 29.796875 605.234375 31.890625 609.578125 32.324219 C 610.128906 32.382812 610.679688 32.40625 611.226562 32.40625 C 612.046875 32.40625 612.851562 32.328125 613.644531 32.210938 L 621.417969 59.546875 C 603.558594 63.296875 590.113281 79.046875 590.113281 97.855469 L 590.113281 203.574219 C 590.113281 224.21875 606.453125 241.144531 626.984375 242.3125 L 626.984375 284.671875 C 626.984375 286.410156 628.019531 287.984375 629.621094 288.679688 C 630.1875 288.925781 630.785156 289.042969 631.378906 289.042969 C 632.46875 289.042969 633.542969 288.636719 634.363281 287.871094 L 680.871094 245.105469 C 682.921875 243.34375 685.550781 242.375 688.269531 242.375 L 806.714844 242.375 C 828.496094 242.375 846.214844 224.804688 846.214844 203.210938 L 846.214844 97.855469 C 846.214844 79.882812 833.929688 64.703125 817.253906 60.121094 "/></g></g></svg>