<svg xmlns="http://www.w3.org/2000/svg" xmlns:xlink="http://www.w3.org/1999/xlink" width="500" zoomAndPan="magnify" viewBox="0 0 375 374.999991" height="500" preserveAspectRatio="xMidYMid meet" version="1.2"><defs><clipPath id="71df1afe73"><path d="M 104 152 L 233 152 L 233 282.816406 L 104 282.816406 Z M 104 152 "/></clipPath><clipPath id="1c7802dfda"><path d="M 98.070312 95 L 253 95 L 253 196 L 98.070312 196 Z M 98.070312 95 "/></clipPath></defs><g id="01d9c22a6a"><path style=" stroke:none;fill-rule:evenodd;fill:#21bbfe;fill-opacity:1;" d="M 252.820312 199.242188 C 237.9375 242.90625 194.996094 270.527344 149.203125 265.894531 C 157.789062 269.257812 167.125 271.109375 176.902344 271.109375 C 217.4375 271.105469 250.558594 239.3125 252.820312 199.242188 "/><g clip-rule="nonzero" clip-path="url(#71df1afe73)"><path style=" stroke:none;fill-rule:evenodd;fill:#0080ba;fill-opacity:1;" d="M 126.386719 251.886719 C 128.191406 264.257812 134.847656 275.390625 144.878906 282.816406 C 142.03125 275.128906 141.554688 268.546875 143.445312 263.070312 C 147.007812 252.773438 158.960938 246.386719 179.292969 243.917969 C 166.003906 238.957031 151.183594 240.339844 139.039062 247.679688 C 100.355469 225.59375 130.191406 171.648438 168.9375 162.757812 C 192.847656 157.273438 217.550781 164.175781 232.480469 183.691406 C 219.175781 165.917969 198.910156 154.714844 176.816406 152.914062 C 140.925781 149.992188 101.695312 172.359375 104.757812 212.460938 C 105.457031 221.613281 108.519531 230.648438 113.984375 238.597656 C 117.609375 243.484375 121.773438 247.945312 126.386719 251.886719 "/></g><g clip-rule="nonzero" clip-path="url(#1c7802dfda)"><path style=" stroke:none;fill-rule:evenodd;fill:#21bbfe;fill-opacity:1;" d="M 189.726562 110.863281 C 177.285156 97.660156 158.648438 92.308594 141.121094 96.902344 C 146.007812 101.902344 149.703125 107.941406 151.933594 114.574219 C 120.617188 125.558594 98.152344 155.445312 98.152344 190.59375 C 98.152344 191.765625 98.179688 192.933594 98.226562 194.09375 C 119.363281 122.371094 223.585938 127.863281 250.003906 195.824219 C 254.753906 190.078125 253.707031 181.644531 246.875 170.519531 C 250.300781 163.367188 249.902344 155.359375 245.664062 146.507812 C 233.273438 127.550781 213.113281 114.15625 189.726562 110.863281 "/></g></g></svg>